<mxfile host="Electron" agent="Mozilla/5.0 (X11; Linux x86_64) AppleWebKit/537.36 (KHTML, like Gecko) draw.io/27.0.9 Chrome/134.0.6998.205 Electron/35.6.0 Safari/537.36" version="27.0.9">
  <diagram name="Page-1" id="r6mv-huth-j_T5dcRZXc">
    <mxGraphModel dx="7130" dy="4565" grid="0" gridSize="10" guides="1" tooltips="1" connect="1" arrows="1" fold="1" page="1" pageScale="1" pageWidth="350" pageHeight="70" math="0" shadow="0">
      <root>
        <mxCell id="0" />
        <mxCell id="1" parent="0" />
        <mxCell id="P9SKCXnRvYGnvvP028wO-3" value="" style="edgeStyle=orthogonalEdgeStyle;rounded=0;orthogonalLoop=1;jettySize=auto;html=1;orthogonal=1;curved=1;noEdgeStyle=1;" parent="1" source="P9SKCXnRvYGnvvP028wO-1" target="P9SKCXnRvYGnvvP028wO-2" edge="1">
          <mxGeometry relative="1" as="geometry">
            <Array as="points">
              <mxPoint x="272.5" y="72" />
              <mxPoint x="225" y="148" />
            </Array>
          </mxGeometry>
        </mxCell>
        <mxCell id="P9SKCXnRvYGnvvP028wO-5" style="edgeStyle=orthogonalEdgeStyle;rounded=0;orthogonalLoop=1;jettySize=auto;html=1;entryX=0.5;entryY=0;entryDx=0;entryDy=0;orthogonal=1;curved=1;noEdgeStyle=1;" parent="1" source="P9SKCXnRvYGnvvP028wO-1" target="P9SKCXnRvYGnvvP028wO-6" edge="1">
          <mxGeometry relative="1" as="geometry">
            <mxPoint x="210" y="160" as="targetPoint" />
            <Array as="points">
              <mxPoint x="327.5" y="72" />
              <mxPoint x="375" y="148" />
            </Array>
          </mxGeometry>
        </mxCell>
        <mxCell id="P9SKCXnRvYGnvvP028wO-1" value="root" style="whiteSpace=wrap;html=1;" parent="1" vertex="1">
          <mxGeometry x="240" width="120" height="60" as="geometry" />
        </mxCell>
        <mxCell id="P9SKCXnRvYGnvvP028wO-8" value="" style="edgeStyle=orthogonalEdgeStyle;rounded=0;orthogonalLoop=1;jettySize=auto;html=1;orthogonal=1;curved=1;noEdgeStyle=1;" parent="1" source="P9SKCXnRvYGnvvP028wO-2" target="P9SKCXnRvYGnvvP028wO-7" edge="1">
          <mxGeometry relative="1" as="geometry">
            <Array as="points">
              <mxPoint x="225" y="232" />
              <mxPoint x="180" y="270" />
              <mxPoint x="180" y="430" />
              <mxPoint x="135" y="468" />
            </Array>
          </mxGeometry>
        </mxCell>
        <mxCell id="P9SKCXnRvYGnvvP028wO-2" value="checksums invalid" style="whiteSpace=wrap;html=1;" parent="1" vertex="1">
          <mxGeometry x="165" y="160" width="120" height="60" as="geometry" />
        </mxCell>
        <mxCell id="P9SKCXnRvYGnvvP028wO-14" value="" style="edgeStyle=orthogonalEdgeStyle;rounded=0;orthogonalLoop=1;jettySize=auto;html=1;orthogonal=1;curved=1;noEdgeStyle=1;" parent="1" source="P9SKCXnRvYGnvvP028wO-6" target="P9SKCXnRvYGnvvP028wO-13" edge="1">
          <mxGeometry relative="1" as="geometry">
            <Array as="points">
              <mxPoint x="347.5" y="232" />
              <mxPoint x="300" y="308" />
            </Array>
          </mxGeometry>
        </mxCell>
        <mxCell id="P9SKCXnRvYGnvvP028wO-16" style="edgeStyle=orthogonalEdgeStyle;rounded=0;orthogonalLoop=1;jettySize=auto;html=1;orthogonal=1;curved=1;noEdgeStyle=1;" parent="1" source="P9SKCXnRvYGnvvP028wO-6" target="P9SKCXnRvYGnvvP028wO-15" edge="1">
          <mxGeometry relative="1" as="geometry">
            <Array as="points">
              <mxPoint x="402.5" y="232" />
              <mxPoint x="525" y="270" />
              <mxPoint x="525" y="430" />
              <mxPoint x="525" y="430" />
              <mxPoint x="525" y="590" />
              <mxPoint x="525" y="590" />
              <mxPoint x="525" y="750" />
              <mxPoint x="525" y="750" />
              <mxPoint x="525" y="910" />
              <mxPoint x="525" y="910" />
              <mxPoint x="525" y="1070" />
              <mxPoint x="525" y="1070" />
              <mxPoint x="525" y="1230" />
              <mxPoint x="525" y="1268" />
            </Array>
          </mxGeometry>
        </mxCell>
        <mxCell id="P9SKCXnRvYGnvvP028wO-6" value="checksums valid" style="whiteSpace=wrap;html=1;" parent="1" vertex="1">
          <mxGeometry x="315" y="160" width="120" height="60" as="geometry" />
        </mxCell>
        <mxCell id="P9SKCXnRvYGnvvP028wO-10" value="" style="edgeStyle=orthogonalEdgeStyle;rounded=0;orthogonalLoop=1;jettySize=auto;html=1;orthogonal=1;curved=1;noEdgeStyle=1;" parent="1" source="P9SKCXnRvYGnvvP028wO-7" target="P9SKCXnRvYGnvvP028wO-9" edge="1">
          <mxGeometry relative="1" as="geometry">
            <Array as="points">
              <mxPoint x="135" y="552" />
              <mxPoint x="182.5" y="628" />
            </Array>
          </mxGeometry>
        </mxCell>
        <mxCell id="P9SKCXnRvYGnvvP028wO-7" value="count" style="whiteSpace=wrap;html=1;" parent="1" vertex="1">
          <mxGeometry x="75" y="480" width="120" height="60" as="geometry" />
        </mxCell>
        <mxCell id="P9SKCXnRvYGnvvP028wO-12" value="" style="edgeStyle=orthogonalEdgeStyle;rounded=0;orthogonalLoop=1;jettySize=auto;html=1;orthogonal=1;curved=1;noEdgeStyle=1;" parent="1" source="P9SKCXnRvYGnvvP028wO-9" target="P9SKCXnRvYGnvvP028wO-11" edge="1">
          <mxGeometry relative="1" as="geometry">
            <Array as="points">
              <mxPoint x="210" y="712" />
              <mxPoint x="210" y="788" />
            </Array>
          </mxGeometry>
        </mxCell>
        <mxCell id="P9SKCXnRvYGnvvP028wO-9" value="sample" style="whiteSpace=wrap;html=1;" parent="1" vertex="1">
          <mxGeometry x="150" y="640" width="120" height="60" as="geometry" />
        </mxCell>
        <mxCell id="P9SKCXnRvYGnvvP028wO-11" value="drop" style="whiteSpace=wrap;html=1;" parent="1" vertex="1">
          <mxGeometry x="150" y="800" width="120" height="60" as="geometry" />
        </mxCell>
        <mxCell id="P9SKCXnRvYGnvvP028wO-18" value="" style="edgeStyle=orthogonalEdgeStyle;rounded=0;orthogonalLoop=1;jettySize=auto;html=1;orthogonal=1;curved=1;noEdgeStyle=1;" parent="1" source="P9SKCXnRvYGnvvP028wO-13" target="P9SKCXnRvYGnvvP028wO-17" edge="1">
          <mxGeometry relative="1" as="geometry">
            <Array as="points">
              <mxPoint x="272.5" y="392" />
              <mxPoint x="285" y="468" />
            </Array>
          </mxGeometry>
        </mxCell>
        <mxCell id="P9SKCXnRvYGnvvP028wO-21" style="edgeStyle=orthogonalEdgeStyle;rounded=0;orthogonalLoop=1;jettySize=auto;html=1;entryX=0.5;entryY=0;entryDx=0;entryDy=0;orthogonal=1;curved=1;noEdgeStyle=1;" parent="1" source="P9SKCXnRvYGnvvP028wO-13" target="P9SKCXnRvYGnvvP028wO-19" edge="1">
          <mxGeometry relative="1" as="geometry">
            <Array as="points">
              <mxPoint x="327.5" y="392" />
              <mxPoint x="435" y="468" />
            </Array>
          </mxGeometry>
        </mxCell>
        <mxCell id="P9SKCXnRvYGnvvP028wO-13" value="vpc lookup" style="whiteSpace=wrap;html=1;" parent="1" vertex="1">
          <mxGeometry x="240" y="320" width="120" height="60" as="geometry" />
        </mxCell>
        <mxCell id="P9SKCXnRvYGnvvP028wO-79" style="edgeStyle=orthogonalEdgeStyle;rounded=0;orthogonalLoop=1;jettySize=auto;html=1;entryX=0.5;entryY=0;entryDx=0;entryDy=0;orthogonal=1;curved=1;noEdgeStyle=1;" parent="1" source="P9SKCXnRvYGnvvP028wO-15" target="P9SKCXnRvYGnvvP028wO-37" edge="1">
          <mxGeometry relative="1" as="geometry">
            <Array as="points">
              <mxPoint x="525" y="1352" />
              <mxPoint x="567.5" y="1428" />
            </Array>
          </mxGeometry>
        </mxCell>
        <mxCell id="P9SKCXnRvYGnvvP028wO-15" value="control" style="whiteSpace=wrap;html=1;" parent="1" vertex="1">
          <mxGeometry x="465" y="1280" width="120" height="60" as="geometry" />
        </mxCell>
        <mxCell id="P9SKCXnRvYGnvvP028wO-20" style="edgeStyle=orthogonalEdgeStyle;rounded=0;orthogonalLoop=1;jettySize=auto;html=1;entryX=0.5;entryY=0;entryDx=0;entryDy=0;orthogonal=1;curved=1;noEdgeStyle=1;" parent="1" source="P9SKCXnRvYGnvvP028wO-17" target="P9SKCXnRvYGnvvP028wO-9" edge="1">
          <mxGeometry relative="1" as="geometry">
            <Array as="points">
              <mxPoint x="285" y="552" />
              <mxPoint x="237.5" y="628" />
            </Array>
          </mxGeometry>
        </mxCell>
        <mxCell id="P9SKCXnRvYGnvvP028wO-17" value="vpc miss" style="whiteSpace=wrap;html=1;" parent="1" vertex="1">
          <mxGeometry x="225" y="480" width="120" height="60" as="geometry" />
        </mxCell>
        <mxCell id="P9SKCXnRvYGnvvP028wO-23" value="" style="edgeStyle=orthogonalEdgeStyle;rounded=0;orthogonalLoop=1;jettySize=auto;html=1;orthogonal=1;curved=1;noEdgeStyle=1;" parent="1" source="P9SKCXnRvYGnvvP028wO-19" target="P9SKCXnRvYGnvvP028wO-22" edge="1">
          <mxGeometry relative="1" as="geometry">
            <Array as="points">
              <mxPoint x="435" y="552" />
              <mxPoint x="360" y="628" />
            </Array>
          </mxGeometry>
        </mxCell>
        <mxCell id="P9SKCXnRvYGnvvP028wO-19" value="vpc match" style="whiteSpace=wrap;html=1;" parent="1" vertex="1">
          <mxGeometry x="375" y="480" width="120" height="60" as="geometry" />
        </mxCell>
        <mxCell id="P9SKCXnRvYGnvvP028wO-25" value="" style="edgeStyle=orthogonalEdgeStyle;rounded=0;orthogonalLoop=1;jettySize=auto;html=1;orthogonal=1;curved=1;noEdgeStyle=1;" parent="1" source="P9SKCXnRvYGnvvP028wO-22" target="P9SKCXnRvYGnvvP028wO-24" edge="1">
          <mxGeometry relative="1" as="geometry">
            <Array as="points">
              <mxPoint x="360" y="712" />
              <mxPoint x="360" y="788" />
            </Array>
          </mxGeometry>
        </mxCell>
        <mxCell id="P9SKCXnRvYGnvvP028wO-22" value="mark frame" style="whiteSpace=wrap;html=1;" parent="1" vertex="1">
          <mxGeometry x="300" y="640" width="120" height="60" as="geometry" />
        </mxCell>
        <mxCell id="P9SKCXnRvYGnvvP028wO-27" value="" style="edgeStyle=orthogonalEdgeStyle;rounded=0;orthogonalLoop=1;jettySize=auto;html=1;orthogonal=1;curved=1;noEdgeStyle=1;" parent="1" source="P9SKCXnRvYGnvvP028wO-24" target="P9SKCXnRvYGnvvP028wO-26" edge="1">
          <mxGeometry relative="1" as="geometry">
            <Array as="points">
              <mxPoint x="360" y="872" />
              <mxPoint x="285" y="948" />
            </Array>
          </mxGeometry>
        </mxCell>
        <mxCell id="P9SKCXnRvYGnvvP028wO-24" value="decapsulate" style="whiteSpace=wrap;html=1;" parent="1" vertex="1">
          <mxGeometry x="300" y="800" width="120" height="60" as="geometry" />
        </mxCell>
        <mxCell id="P9SKCXnRvYGnvvP028wO-29" value="" style="edgeStyle=orthogonalEdgeStyle;rounded=0;orthogonalLoop=1;jettySize=auto;html=1;orthogonal=1;curved=1;noEdgeStyle=1;" parent="1" source="P9SKCXnRvYGnvvP028wO-26" target="P9SKCXnRvYGnvvP028wO-28" edge="1">
          <mxGeometry relative="1" as="geometry">
            <Array as="points">
              <mxPoint x="285" y="1032" />
              <mxPoint x="240" y="1108" />
            </Array>
          </mxGeometry>
        </mxCell>
        <mxCell id="P9SKCXnRvYGnvvP028wO-26" value="count" style="whiteSpace=wrap;html=1;" parent="1" vertex="1">
          <mxGeometry x="225" y="960" width="120" height="60" as="geometry" />
        </mxCell>
        <mxCell id="P9SKCXnRvYGnvvP028wO-31" value="" style="edgeStyle=orthogonalEdgeStyle;rounded=0;orthogonalLoop=1;jettySize=auto;html=1;orthogonal=1;curved=1;noEdgeStyle=1;" parent="1" source="P9SKCXnRvYGnvvP028wO-28" target="P9SKCXnRvYGnvvP028wO-30" edge="1">
          <mxGeometry relative="1" as="geometry">
            <Array as="points">
              <mxPoint x="203.33333333333334" y="1192" />
              <mxPoint x="75" y="1268" />
            </Array>
          </mxGeometry>
        </mxCell>
        <mxCell id="P9SKCXnRvYGnvvP028wO-35" style="edgeStyle=orthogonalEdgeStyle;rounded=0;orthogonalLoop=1;jettySize=auto;html=1;entryX=0.5;entryY=0;entryDx=0;entryDy=0;orthogonal=1;curved=1;noEdgeStyle=1;" parent="1" source="P9SKCXnRvYGnvvP028wO-28" target="P9SKCXnRvYGnvvP028wO-33" edge="1">
          <mxGeometry relative="1" as="geometry">
            <Array as="points">
              <mxPoint x="240" y="1194" />
              <mxPoint x="225" y="1268" />
            </Array>
          </mxGeometry>
        </mxCell>
        <mxCell id="P9SKCXnRvYGnvvP028wO-36" style="edgeStyle=orthogonalEdgeStyle;rounded=0;orthogonalLoop=1;jettySize=auto;html=1;orthogonal=1;curved=1;noEdgeStyle=1;" parent="1" source="P9SKCXnRvYGnvvP028wO-28" target="P9SKCXnRvYGnvvP028wO-34" edge="1">
          <mxGeometry relative="1" as="geometry">
            <Array as="points">
              <mxPoint x="276.6666666666667" y="1192" />
              <mxPoint x="375" y="1268" />
            </Array>
          </mxGeometry>
        </mxCell>
        <mxCell id="P9SKCXnRvYGnvvP028wO-28" value="meter" style="whiteSpace=wrap;html=1;" parent="1" vertex="1">
          <mxGeometry x="180" y="1120" width="120" height="60" as="geometry" />
        </mxCell>
        <mxCell id="P9SKCXnRvYGnvvP028wO-58" style="edgeStyle=orthogonalEdgeStyle;rounded=0;orthogonalLoop=1;jettySize=auto;html=1;entryX=0.5;entryY=0;entryDx=0;entryDy=0;orthogonal=1;curved=1;exitX=0.5;exitY=1;exitDx=0;exitDy=0;noEdgeStyle=1;" parent="1" source="P9SKCXnRvYGnvvP028wO-30" target="P9SKCXnRvYGnvvP028wO-54" edge="1">
          <mxGeometry relative="1" as="geometry">
            <Array as="points">
              <mxPoint x="116.25" y="1352" />
              <mxPoint x="362.5" y="1428" />
            </Array>
          </mxGeometry>
        </mxCell>
        <mxCell id="P9SKCXnRvYGnvvP028wO-59" style="edgeStyle=orthogonalEdgeStyle;rounded=0;orthogonalLoop=1;jettySize=auto;html=1;entryX=0.5;entryY=0;entryDx=0;entryDy=0;orthogonal=1;curved=1;noEdgeStyle=1;" parent="1" source="P9SKCXnRvYGnvvP028wO-30" target="P9SKCXnRvYGnvvP028wO-55" edge="1">
          <mxGeometry relative="1" as="geometry">
            <Array as="points">
              <mxPoint x="61.25" y="1354" />
              <mxPoint x="62.5" y="1428" />
            </Array>
          </mxGeometry>
        </mxCell>
        <mxCell id="P9SKCXnRvYGnvvP028wO-60" style="edgeStyle=orthogonalEdgeStyle;rounded=0;orthogonalLoop=1;jettySize=auto;html=1;orthogonal=1;curved=1;noEdgeStyle=1;" parent="1" source="P9SKCXnRvYGnvvP028wO-30" target="P9SKCXnRvYGnvvP028wO-56" edge="1">
          <mxGeometry relative="1" as="geometry">
            <Array as="points">
              <mxPoint x="88.75" y="1354" />
              <mxPoint x="212.5" y="1428" />
            </Array>
          </mxGeometry>
        </mxCell>
        <mxCell id="P9SKCXnRvYGnvvP028wO-61" style="edgeStyle=orthogonalEdgeStyle;rounded=0;orthogonalLoop=1;jettySize=auto;html=1;orthogonal=1;curved=1;noEdgeStyle=1;" parent="1" source="P9SKCXnRvYGnvvP028wO-30" target="P9SKCXnRvYGnvvP028wO-57" edge="1">
          <mxGeometry relative="1" as="geometry">
            <Array as="points">
              <mxPoint x="33.75" y="1352" />
              <mxPoint y="1390" />
              <mxPoint y="1550" />
              <mxPoint x="105" y="1588" />
            </Array>
          </mxGeometry>
        </mxCell>
        <mxCell id="P9SKCXnRvYGnvvP028wO-30" value="ipv4" style="whiteSpace=wrap;html=1;" parent="1" vertex="1">
          <mxGeometry x="15" y="1280" width="120" height="60" as="geometry" />
        </mxCell>
        <mxCell id="P9SKCXnRvYGnvvP028wO-70" style="edgeStyle=orthogonalEdgeStyle;rounded=0;orthogonalLoop=1;jettySize=auto;html=1;orthogonal=1;curved=1;noEdgeStyle=1;" parent="1" source="P9SKCXnRvYGnvvP028wO-33" target="P9SKCXnRvYGnvvP028wO-54" edge="1">
          <mxGeometry relative="1" as="geometry">
            <Array as="points">
              <mxPoint x="261.6666666666667" y="1352" />
              <mxPoint x="417.5" y="1428" />
            </Array>
          </mxGeometry>
        </mxCell>
        <mxCell id="P9SKCXnRvYGnvvP028wO-71" style="edgeStyle=orthogonalEdgeStyle;rounded=0;orthogonalLoop=1;jettySize=auto;html=1;entryX=0.5;entryY=0;entryDx=0;entryDy=0;orthogonal=1;curved=1;noEdgeStyle=1;" parent="1" source="P9SKCXnRvYGnvvP028wO-33" target="P9SKCXnRvYGnvvP028wO-55" edge="1">
          <mxGeometry relative="1" as="geometry">
            <Array as="points">
              <mxPoint x="188.33333333333334" y="1352" />
              <mxPoint x="117.5" y="1428" />
            </Array>
          </mxGeometry>
        </mxCell>
        <mxCell id="P9SKCXnRvYGnvvP028wO-72" style="edgeStyle=orthogonalEdgeStyle;rounded=0;orthogonalLoop=1;jettySize=auto;html=1;orthogonal=1;curved=1;noEdgeStyle=1;" parent="1" source="P9SKCXnRvYGnvvP028wO-33" target="P9SKCXnRvYGnvvP028wO-56" edge="1">
          <mxGeometry relative="1" as="geometry">
            <Array as="points">
              <mxPoint x="225" y="1354" />
              <mxPoint x="267.5" y="1428" />
            </Array>
          </mxGeometry>
        </mxCell>
        <mxCell id="P9SKCXnRvYGnvvP028wO-33" value="ipv6" style="whiteSpace=wrap;html=1;" parent="1" vertex="1">
          <mxGeometry x="165" y="1280" width="120" height="60" as="geometry" />
        </mxCell>
        <mxCell id="P9SKCXnRvYGnvvP028wO-38" value="" style="edgeStyle=orthogonalEdgeStyle;rounded=0;orthogonalLoop=1;jettySize=auto;html=1;orthogonal=1;curved=1;noEdgeStyle=1;" parent="1" source="P9SKCXnRvYGnvvP028wO-34" target="P9SKCXnRvYGnvvP028wO-37" edge="1">
          <mxGeometry relative="1" as="geometry">
            <Array as="points">
              <mxPoint x="375" y="1352" />
              <mxPoint x="512.5" y="1428" />
            </Array>
          </mxGeometry>
        </mxCell>
        <mxCell id="P9SKCXnRvYGnvvP028wO-34" value="other" style="whiteSpace=wrap;html=1;" parent="1" vertex="1">
          <mxGeometry x="315" y="1280" width="120" height="60" as="geometry" />
        </mxCell>
        <mxCell id="P9SKCXnRvYGnvvP028wO-40" value="" style="edgeStyle=orthogonalEdgeStyle;rounded=0;orthogonalLoop=1;jettySize=auto;html=1;orthogonal=1;entryX=0.5;entryY=0;entryDx=0;entryDy=0;curved=1;noEdgeStyle=1;" parent="1" source="P9SKCXnRvYGnvvP028wO-37" target="P9SKCXnRvYGnvvP028wO-52" edge="1">
          <mxGeometry relative="1" as="geometry">
            <Array as="points">
              <mxPoint x="540" y="1512" />
              <mxPoint x="538.59375" y="1588" />
            </Array>
          </mxGeometry>
        </mxCell>
        <mxCell id="P9SKCXnRvYGnvvP028wO-37" value="meter" style="whiteSpace=wrap;html=1;" parent="1" vertex="1">
          <mxGeometry x="480" y="1440" width="120" height="60" as="geometry" />
        </mxCell>
        <mxCell id="P9SKCXnRvYGnvvP028wO-39" value="trap / queue to tap device" style="whiteSpace=wrap;html=1;" parent="1" vertex="1">
          <mxGeometry x="478.59375" y="1760" width="120" height="60" as="geometry" />
        </mxCell>
        <mxCell id="P9SKCXnRvYGnvvP028wO-46" style="edgeStyle=orthogonalEdgeStyle;rounded=0;orthogonalLoop=1;jettySize=auto;html=1;orthogonal=1;curved=1;noEdgeStyle=1;" parent="1" source="P9SKCXnRvYGnvvP028wO-41" target="P9SKCXnRvYGnvvP028wO-44" edge="1">
          <mxGeometry relative="1" as="geometry">
            <Array as="points">
              <mxPoint x="285" y="1672" />
              <mxPoint x="284.08067491319446" y="1744" />
            </Array>
          </mxGeometry>
        </mxCell>
        <mxCell id="P9SKCXnRvYGnvvP028wO-41" value="NAT (pre routing)&lt;div&gt;(44, 66, 64, 46)&lt;/div&gt;" style="whiteSpace=wrap;html=1;" parent="1" vertex="1">
          <mxGeometry x="225" y="1600" width="120" height="60" as="geometry" />
        </mxCell>
        <mxCell id="P9SKCXnRvYGnvvP028wO-47" style="edgeStyle=orthogonalEdgeStyle;rounded=0;orthogonalLoop=1;jettySize=auto;html=1;orthogonal=1;curved=1;noEdgeStyle=1;" parent="1" source="P9SKCXnRvYGnvvP028wO-44" target="P9SKCXnRvYGnvvP028wO-45" edge="1">
          <mxGeometry relative="1" as="geometry">
            <Array as="points">
              <mxPoint x="284.08067491319446" y="1832" />
              <mxPoint x="280.88514539930554" y="1908" />
            </Array>
          </mxGeometry>
        </mxCell>
        <mxCell id="P9SKCXnRvYGnvvP028wO-44" value="Routing" style="whiteSpace=wrap;html=1;" parent="1" vertex="1">
          <mxGeometry x="224.08067491319446" y="1760" width="120" height="60" as="geometry" />
        </mxCell>
        <mxCell id="P9SKCXnRvYGnvvP028wO-74" style="edgeStyle=orthogonalEdgeStyle;rounded=0;orthogonalLoop=1;jettySize=auto;html=1;orthogonal=1;curved=1;noEdgeStyle=1;" parent="1" source="P9SKCXnRvYGnvvP028wO-45" target="P9SKCXnRvYGnvvP028wO-73" edge="1">
          <mxGeometry relative="1" as="geometry">
            <Array as="points">
              <mxPoint x="280.88514539930554" y="1992" />
              <mxPoint x="279.2873806423611" y="2068" />
            </Array>
          </mxGeometry>
        </mxCell>
        <mxCell id="P9SKCXnRvYGnvvP028wO-45" value="NAT (post routing)&lt;div&gt;(44, 66, 64, 46)&lt;/div&gt;" style="whiteSpace=wrap;html=1;" parent="1" vertex="1">
          <mxGeometry x="220.88514539930554" y="1920" width="120" height="60" as="geometry" />
        </mxCell>
        <mxCell id="P9SKCXnRvYGnvvP028wO-53" style="edgeStyle=orthogonalEdgeStyle;rounded=0;orthogonalLoop=1;jettySize=auto;html=1;orthogonal=1;curved=1;noEdgeStyle=1;" parent="1" source="P9SKCXnRvYGnvvP028wO-52" target="P9SKCXnRvYGnvvP028wO-39" edge="1">
          <mxGeometry relative="1" as="geometry">
            <Array as="points">
              <mxPoint x="538.59375" y="1672" />
              <mxPoint x="538.59375" y="1748" />
            </Array>
          </mxGeometry>
        </mxCell>
        <mxCell id="P9SKCXnRvYGnvvP028wO-52" value="Push QinQ" style="whiteSpace=wrap;html=1;" parent="1" vertex="1">
          <mxGeometry x="478.59375" y="1600" width="120" height="60" as="geometry" />
        </mxCell>
        <mxCell id="P9SKCXnRvYGnvvP028wO-62" style="edgeStyle=orthogonalEdgeStyle;rounded=0;orthogonalLoop=1;jettySize=auto;html=1;entryX=0.5;entryY=0;entryDx=0;entryDy=0;orthogonal=1;curved=1;noEdgeStyle=1;" parent="1" source="P9SKCXnRvYGnvvP028wO-54" target="P9SKCXnRvYGnvvP028wO-41" edge="1">
          <mxGeometry relative="1" as="geometry">
            <Array as="points">
              <mxPoint x="362.5" y="1512" />
              <mxPoint x="321.6666666666667" y="1588" />
            </Array>
          </mxGeometry>
        </mxCell>
        <mxCell id="P9SKCXnRvYGnvvP028wO-66" style="edgeStyle=orthogonalEdgeStyle;rounded=0;orthogonalLoop=1;jettySize=auto;html=1;orthogonal=1;entryX=0.5;entryY=0;entryDx=0;entryDy=0;curved=1;noEdgeStyle=1;" parent="1" source="P9SKCXnRvYGnvvP028wO-54" target="P9SKCXnRvYGnvvP028wO-44" edge="1">
          <mxGeometry relative="1" as="geometry">
            <mxPoint x="387" y="1760" as="targetPoint" />
            <Array as="points">
              <mxPoint x="417.5" y="1512" />
              <mxPoint x="405" y="1550" />
              <mxPoint x="405" y="1710" />
              <mxPoint x="328.08067491319446" y="1748" />
            </Array>
          </mxGeometry>
        </mxCell>
        <mxCell id="P9SKCXnRvYGnvvP028wO-54" value="TCP" style="whiteSpace=wrap;html=1;" parent="1" vertex="1">
          <mxGeometry x="330" y="1440" width="120" height="60" as="geometry" />
        </mxCell>
        <mxCell id="P9SKCXnRvYGnvvP028wO-63" style="edgeStyle=orthogonalEdgeStyle;rounded=0;orthogonalLoop=1;jettySize=auto;html=1;orthogonal=1;curved=1;noEdgeStyle=1;" parent="1" source="P9SKCXnRvYGnvvP028wO-55" target="P9SKCXnRvYGnvvP028wO-41" edge="1">
          <mxGeometry relative="1" as="geometry">
            <Array as="points">
              <mxPoint x="117.5" y="1512" />
              <mxPoint x="248.33333333333334" y="1588" />
            </Array>
          </mxGeometry>
        </mxCell>
        <mxCell id="P9SKCXnRvYGnvvP028wO-67" style="edgeStyle=orthogonalEdgeStyle;rounded=0;orthogonalLoop=1;jettySize=auto;html=1;orthogonal=1;entryX=0.5;entryY=0;entryDx=0;entryDy=0;curved=1;noEdgeStyle=1;" parent="1" source="P9SKCXnRvYGnvvP028wO-55" target="P9SKCXnRvYGnvvP028wO-44" edge="1">
          <mxGeometry relative="1" as="geometry">
            <mxPoint x="420" y="1760" as="targetPoint" />
            <Array as="points">
              <mxPoint x="62.5" y="1512" />
              <mxPoint x="195" y="1550" />
              <mxPoint x="195" y="1710" />
              <mxPoint x="262.08067491319446" y="1746" />
            </Array>
          </mxGeometry>
        </mxCell>
        <mxCell id="P9SKCXnRvYGnvvP028wO-55" value="UDP" style="whiteSpace=wrap;html=1;" parent="1" vertex="1">
          <mxGeometry x="30" y="1440" width="120" height="60" as="geometry" />
        </mxCell>
        <mxCell id="P9SKCXnRvYGnvvP028wO-64" style="edgeStyle=orthogonalEdgeStyle;rounded=0;orthogonalLoop=1;jettySize=auto;html=1;entryX=0.5;entryY=0;entryDx=0;entryDy=0;orthogonal=1;curved=1;noEdgeStyle=1;" parent="1" source="P9SKCXnRvYGnvvP028wO-56" target="P9SKCXnRvYGnvvP028wO-41" edge="1">
          <mxGeometry relative="1" as="geometry">
            <Array as="points">
              <mxPoint x="212.5" y="1512" />
              <mxPoint x="285" y="1586" />
            </Array>
          </mxGeometry>
        </mxCell>
        <mxCell id="P9SKCXnRvYGnvvP028wO-68" style="edgeStyle=orthogonalEdgeStyle;rounded=0;orthogonalLoop=1;jettySize=auto;html=1;entryX=0.75;entryY=0;entryDx=0;entryDy=0;orthogonal=1;curved=1;noEdgeStyle=1;" parent="1" source="P9SKCXnRvYGnvvP028wO-56" target="P9SKCXnRvYGnvvP028wO-44" edge="1">
          <mxGeometry relative="1" as="geometry">
            <Array as="points">
              <mxPoint x="267.5" y="1512" />
              <mxPoint x="375" y="1550" />
              <mxPoint x="375" y="1710" />
              <mxPoint x="306.08067491319446" y="1746" />
            </Array>
          </mxGeometry>
        </mxCell>
        <mxCell id="P9SKCXnRvYGnvvP028wO-56" value="SCTP" style="whiteSpace=wrap;html=1;" parent="1" vertex="1">
          <mxGeometry x="180" y="1440" width="120" height="60" as="geometry" />
        </mxCell>
        <mxCell id="P9SKCXnRvYGnvvP028wO-65" style="edgeStyle=orthogonalEdgeStyle;rounded=0;orthogonalLoop=1;jettySize=auto;html=1;entryX=0.25;entryY=0;entryDx=0;entryDy=0;orthogonal=1;curved=1;noEdgeStyle=1;" parent="1" source="P9SKCXnRvYGnvvP028wO-57" target="P9SKCXnRvYGnvvP028wO-44" edge="1">
          <mxGeometry relative="1" as="geometry">
            <Array as="points">
              <mxPoint x="105" y="1672" />
              <mxPoint x="240.08067491319446" y="1748" />
            </Array>
          </mxGeometry>
        </mxCell>
        <mxCell id="P9SKCXnRvYGnvvP028wO-57" value="other" style="whiteSpace=wrap;html=1;" parent="1" vertex="1">
          <mxGeometry x="45" y="1600" width="120" height="60" as="geometry" />
        </mxCell>
        <mxCell id="P9SKCXnRvYGnvvP028wO-76" value="" style="edgeStyle=orthogonalEdgeStyle;rounded=0;orthogonalLoop=1;jettySize=auto;html=1;orthogonal=1;curved=1;noEdgeStyle=1;" parent="1" source="P9SKCXnRvYGnvvP028wO-73" target="P9SKCXnRvYGnvvP028wO-75" edge="1">
          <mxGeometry relative="1" as="geometry">
            <Array as="points">
              <mxPoint x="279.2873806423611" y="2152" />
              <mxPoint x="279.2873806423611" y="2228" />
            </Array>
          </mxGeometry>
        </mxCell>
        <mxCell id="P9SKCXnRvYGnvvP028wO-73" value="Encap / egress marking" style="whiteSpace=wrap;html=1;" parent="1" vertex="1">
          <mxGeometry x="219.2873806423611" y="2080" width="120" height="60" as="geometry" />
        </mxCell>
        <mxCell id="P9SKCXnRvYGnvvP028wO-75" value="queue" style="whiteSpace=wrap;html=1;" parent="1" vertex="1">
          <mxGeometry x="219.2873806423611" y="2240" width="120" height="60" as="geometry" />
        </mxCell>
        <mxCell id="P9SKCXnRvYGnvvP028wO-81" value="" style="edgeStyle=orthogonalEdgeStyle;rounded=0;orthogonalLoop=1;jettySize=auto;html=1;orthogonal=1;curved=1;noEdgeStyle=1;" parent="1" source="P9SKCXnRvYGnvvP028wO-83" target="P9SKCXnRvYGnvvP028wO-85" edge="1">
          <mxGeometry relative="1" as="geometry">
            <Array as="points">
              <mxPoint x="1232.5" y="32" />
              <mxPoint x="1185" y="108" />
            </Array>
          </mxGeometry>
        </mxCell>
        <mxCell id="P9SKCXnRvYGnvvP028wO-82" style="edgeStyle=orthogonalEdgeStyle;rounded=0;orthogonalLoop=1;jettySize=auto;html=1;entryX=0.5;entryY=0;entryDx=0;entryDy=0;orthogonal=1;curved=1;noEdgeStyle=1;" parent="1" source="P9SKCXnRvYGnvvP028wO-83" target="P9SKCXnRvYGnvvP028wO-88" edge="1">
          <mxGeometry relative="1" as="geometry">
            <mxPoint x="1170" y="120" as="targetPoint" />
            <Array as="points">
              <mxPoint x="1287.5" y="32" />
              <mxPoint x="1335" y="108" />
            </Array>
          </mxGeometry>
        </mxCell>
        <mxCell id="P9SKCXnRvYGnvvP028wO-83" value="root" style="whiteSpace=wrap;html=1;fillColor=#6a00ff;fontColor=#ffffff;strokeColor=#3700CC;" parent="1" vertex="1">
          <mxGeometry x="1200" y="-40" width="120" height="60" as="geometry" />
        </mxCell>
        <mxCell id="P9SKCXnRvYGnvvP028wO-84" value="" style="edgeStyle=orthogonalEdgeStyle;rounded=0;orthogonalLoop=1;jettySize=auto;html=1;orthogonal=1;curved=1;noEdgeStyle=1;" parent="1" source="P9SKCXnRvYGnvvP028wO-85" target="P9SKCXnRvYGnvvP028wO-90" edge="1">
          <mxGeometry relative="1" as="geometry">
            <Array as="points">
              <mxPoint x="1185" y="192" />
              <mxPoint x="1140" y="230" />
              <mxPoint x="1140" y="390" />
              <mxPoint x="1095" y="428" />
            </Array>
          </mxGeometry>
        </mxCell>
        <mxCell id="P9SKCXnRvYGnvvP028wO-85" value="checksums invalid" style="whiteSpace=wrap;html=1;" parent="1" vertex="1">
          <mxGeometry x="1125" y="120" width="120" height="60" as="geometry" />
        </mxCell>
        <mxCell id="P9SKCXnRvYGnvvP028wO-86" value="" style="edgeStyle=orthogonalEdgeStyle;rounded=0;orthogonalLoop=1;jettySize=auto;html=1;orthogonal=1;curved=1;noEdgeStyle=1;" parent="1" source="P9SKCXnRvYGnvvP028wO-88" target="P9SKCXnRvYGnvvP028wO-96" edge="1">
          <mxGeometry relative="1" as="geometry">
            <Array as="points">
              <mxPoint x="1307.5" y="192" />
              <mxPoint x="1260" y="268" />
            </Array>
          </mxGeometry>
        </mxCell>
        <mxCell id="P9SKCXnRvYGnvvP028wO-87" style="edgeStyle=orthogonalEdgeStyle;rounded=0;orthogonalLoop=1;jettySize=auto;html=1;orthogonal=1;curved=1;noEdgeStyle=1;" parent="1" source="P9SKCXnRvYGnvvP028wO-88" target="P9SKCXnRvYGnvvP028wO-98" edge="1">
          <mxGeometry relative="1" as="geometry">
            <Array as="points">
              <mxPoint x="1362.5" y="192" />
              <mxPoint x="1485" y="230" />
              <mxPoint x="1485" y="390" />
              <mxPoint x="1485" y="390" />
              <mxPoint x="1485" y="550" />
              <mxPoint x="1485" y="550" />
              <mxPoint x="1485" y="710" />
              <mxPoint x="1485" y="710" />
              <mxPoint x="1485" y="870" />
              <mxPoint x="1485" y="870" />
              <mxPoint x="1485" y="1030" />
              <mxPoint x="1485" y="1030" />
              <mxPoint x="1485" y="1190" />
              <mxPoint x="1485" y="1228" />
            </Array>
          </mxGeometry>
        </mxCell>
        <mxCell id="P9SKCXnRvYGnvvP028wO-88" value="checksums valid" style="whiteSpace=wrap;html=1;fillColor=#6a00ff;fontColor=#ffffff;strokeColor=#3700CC;" parent="1" vertex="1">
          <mxGeometry x="1275" y="120" width="120" height="60" as="geometry" />
        </mxCell>
        <mxCell id="P9SKCXnRvYGnvvP028wO-89" value="" style="edgeStyle=orthogonalEdgeStyle;rounded=0;orthogonalLoop=1;jettySize=auto;html=1;orthogonal=1;curved=1;noEdgeStyle=1;" parent="1" source="P9SKCXnRvYGnvvP028wO-90" target="P9SKCXnRvYGnvvP028wO-92" edge="1">
          <mxGeometry relative="1" as="geometry">
            <Array as="points">
              <mxPoint x="1095" y="512" />
              <mxPoint x="1142.5" y="588" />
            </Array>
          </mxGeometry>
        </mxCell>
        <mxCell id="P9SKCXnRvYGnvvP028wO-90" value="count" style="whiteSpace=wrap;html=1;" parent="1" vertex="1">
          <mxGeometry x="1035" y="440" width="120" height="60" as="geometry" />
        </mxCell>
        <mxCell id="P9SKCXnRvYGnvvP028wO-91" value="" style="edgeStyle=orthogonalEdgeStyle;rounded=0;orthogonalLoop=1;jettySize=auto;html=1;orthogonal=1;curved=1;noEdgeStyle=1;" parent="1" source="P9SKCXnRvYGnvvP028wO-92" target="P9SKCXnRvYGnvvP028wO-93" edge="1">
          <mxGeometry relative="1" as="geometry">
            <Array as="points">
              <mxPoint x="1170" y="672" />
              <mxPoint x="1170" y="748" />
            </Array>
          </mxGeometry>
        </mxCell>
        <mxCell id="P9SKCXnRvYGnvvP028wO-92" value="sample" style="whiteSpace=wrap;html=1;" parent="1" vertex="1">
          <mxGeometry x="1110" y="600" width="120" height="60" as="geometry" />
        </mxCell>
        <mxCell id="P9SKCXnRvYGnvvP028wO-93" value="drop" style="whiteSpace=wrap;html=1;" parent="1" vertex="1">
          <mxGeometry x="1110" y="760" width="120" height="60" as="geometry" />
        </mxCell>
        <mxCell id="P9SKCXnRvYGnvvP028wO-94" value="" style="edgeStyle=orthogonalEdgeStyle;rounded=0;orthogonalLoop=1;jettySize=auto;html=1;orthogonal=1;curved=1;noEdgeStyle=1;" parent="1" source="P9SKCXnRvYGnvvP028wO-96" target="P9SKCXnRvYGnvvP028wO-100" edge="1">
          <mxGeometry relative="1" as="geometry">
            <Array as="points">
              <mxPoint x="1232.5" y="352" />
              <mxPoint x="1245" y="428" />
            </Array>
          </mxGeometry>
        </mxCell>
        <mxCell id="P9SKCXnRvYGnvvP028wO-95" style="edgeStyle=orthogonalEdgeStyle;rounded=0;orthogonalLoop=1;jettySize=auto;html=1;entryX=0.5;entryY=0;entryDx=0;entryDy=0;orthogonal=1;curved=1;noEdgeStyle=1;" parent="1" source="P9SKCXnRvYGnvvP028wO-96" target="P9SKCXnRvYGnvvP028wO-102" edge="1">
          <mxGeometry relative="1" as="geometry">
            <Array as="points">
              <mxPoint x="1287.5" y="352" />
              <mxPoint x="1395" y="428" />
            </Array>
          </mxGeometry>
        </mxCell>
        <mxCell id="P9SKCXnRvYGnvvP028wO-96" value="vpc lookup" style="whiteSpace=wrap;html=1;fillColor=#6a00ff;fontColor=#ffffff;strokeColor=#3700CC;" parent="1" vertex="1">
          <mxGeometry x="1200" y="280" width="120" height="60" as="geometry" />
        </mxCell>
        <mxCell id="P9SKCXnRvYGnvvP028wO-97" style="edgeStyle=orthogonalEdgeStyle;rounded=0;orthogonalLoop=1;jettySize=auto;html=1;entryX=0.5;entryY=0;entryDx=0;entryDy=0;orthogonal=1;curved=1;noEdgeStyle=1;" parent="1" source="P9SKCXnRvYGnvvP028wO-98" target="P9SKCXnRvYGnvvP028wO-125" edge="1">
          <mxGeometry relative="1" as="geometry">
            <Array as="points">
              <mxPoint x="1485" y="1312" />
              <mxPoint x="1527.5" y="1388" />
            </Array>
          </mxGeometry>
        </mxCell>
        <mxCell id="P9SKCXnRvYGnvvP028wO-98" value="control" style="whiteSpace=wrap;html=1;" parent="1" vertex="1">
          <mxGeometry x="1425" y="1240" width="120" height="60" as="geometry" />
        </mxCell>
        <mxCell id="P9SKCXnRvYGnvvP028wO-99" style="edgeStyle=orthogonalEdgeStyle;rounded=0;orthogonalLoop=1;jettySize=auto;html=1;entryX=0.5;entryY=0;entryDx=0;entryDy=0;orthogonal=1;curved=1;noEdgeStyle=1;" parent="1" source="P9SKCXnRvYGnvvP028wO-100" target="P9SKCXnRvYGnvvP028wO-92" edge="1">
          <mxGeometry relative="1" as="geometry">
            <Array as="points">
              <mxPoint x="1245" y="512" />
              <mxPoint x="1197.5" y="588" />
            </Array>
          </mxGeometry>
        </mxCell>
        <mxCell id="P9SKCXnRvYGnvvP028wO-100" value="vpc miss" style="whiteSpace=wrap;html=1;" parent="1" vertex="1">
          <mxGeometry x="1185" y="440" width="120" height="60" as="geometry" />
        </mxCell>
        <mxCell id="P9SKCXnRvYGnvvP028wO-101" value="" style="edgeStyle=orthogonalEdgeStyle;rounded=0;orthogonalLoop=1;jettySize=auto;html=1;orthogonal=1;curved=1;noEdgeStyle=1;" parent="1" source="P9SKCXnRvYGnvvP028wO-102" target="P9SKCXnRvYGnvvP028wO-104" edge="1">
          <mxGeometry relative="1" as="geometry">
            <Array as="points">
              <mxPoint x="1395" y="512" />
              <mxPoint x="1320" y="588" />
            </Array>
          </mxGeometry>
        </mxCell>
        <mxCell id="P9SKCXnRvYGnvvP028wO-102" value="vpc match" style="whiteSpace=wrap;html=1;fillColor=#6a00ff;fontColor=#ffffff;strokeColor=#3700CC;" parent="1" vertex="1">
          <mxGeometry x="1335" y="440" width="120" height="60" as="geometry" />
        </mxCell>
        <mxCell id="P9SKCXnRvYGnvvP028wO-103" value="" style="edgeStyle=orthogonalEdgeStyle;rounded=0;orthogonalLoop=1;jettySize=auto;html=1;orthogonal=1;curved=1;noEdgeStyle=1;" parent="1" source="P9SKCXnRvYGnvvP028wO-104" target="P9SKCXnRvYGnvvP028wO-106" edge="1">
          <mxGeometry relative="1" as="geometry">
            <Array as="points">
              <mxPoint x="1320" y="672" />
              <mxPoint x="1320" y="748" />
            </Array>
          </mxGeometry>
        </mxCell>
        <mxCell id="P9SKCXnRvYGnvvP028wO-104" value="mark frame" style="whiteSpace=wrap;html=1;fillColor=#6a00ff;fontColor=#ffffff;strokeColor=#3700CC;" parent="1" vertex="1">
          <mxGeometry x="1260" y="600" width="120" height="60" as="geometry" />
        </mxCell>
        <mxCell id="P9SKCXnRvYGnvvP028wO-105" value="" style="edgeStyle=orthogonalEdgeStyle;rounded=0;orthogonalLoop=1;jettySize=auto;html=1;orthogonal=1;curved=1;noEdgeStyle=1;" parent="1" source="P9SKCXnRvYGnvvP028wO-106" target="P9SKCXnRvYGnvvP028wO-108" edge="1">
          <mxGeometry relative="1" as="geometry">
            <Array as="points">
              <mxPoint x="1320" y="832" />
              <mxPoint x="1245" y="908" />
            </Array>
          </mxGeometry>
        </mxCell>
        <mxCell id="P9SKCXnRvYGnvvP028wO-106" value="decapsulate" style="whiteSpace=wrap;html=1;fillColor=#6a00ff;fontColor=#ffffff;strokeColor=#3700CC;" parent="1" vertex="1">
          <mxGeometry x="1260" y="760" width="120" height="60" as="geometry" />
        </mxCell>
        <mxCell id="P9SKCXnRvYGnvvP028wO-107" value="" style="edgeStyle=orthogonalEdgeStyle;rounded=0;orthogonalLoop=1;jettySize=auto;html=1;orthogonal=1;curved=1;noEdgeStyle=1;" parent="1" source="P9SKCXnRvYGnvvP028wO-108" target="P9SKCXnRvYGnvvP028wO-112" edge="1">
          <mxGeometry relative="1" as="geometry">
            <Array as="points">
              <mxPoint x="1245" y="992" />
              <mxPoint x="1200" y="1068" />
            </Array>
          </mxGeometry>
        </mxCell>
        <mxCell id="P9SKCXnRvYGnvvP028wO-108" value="count" style="whiteSpace=wrap;html=1;fillColor=#6a00ff;fontColor=#ffffff;strokeColor=#3700CC;" parent="1" vertex="1">
          <mxGeometry x="1185" y="920" width="120" height="60" as="geometry" />
        </mxCell>
        <mxCell id="P9SKCXnRvYGnvvP028wO-109" value="" style="edgeStyle=orthogonalEdgeStyle;rounded=0;orthogonalLoop=1;jettySize=auto;html=1;orthogonal=1;curved=1;noEdgeStyle=1;" parent="1" source="P9SKCXnRvYGnvvP028wO-112" target="P9SKCXnRvYGnvvP028wO-117" edge="1">
          <mxGeometry relative="1" as="geometry">
            <Array as="points">
              <mxPoint x="1163.3333333333333" y="1152" />
              <mxPoint x="1035" y="1228" />
            </Array>
          </mxGeometry>
        </mxCell>
        <mxCell id="P9SKCXnRvYGnvvP028wO-110" style="edgeStyle=orthogonalEdgeStyle;rounded=0;orthogonalLoop=1;jettySize=auto;html=1;entryX=0.5;entryY=0;entryDx=0;entryDy=0;orthogonal=1;curved=1;noEdgeStyle=1;" parent="1" source="P9SKCXnRvYGnvvP028wO-112" target="P9SKCXnRvYGnvvP028wO-121" edge="1">
          <mxGeometry relative="1" as="geometry">
            <Array as="points">
              <mxPoint x="1200" y="1154" />
              <mxPoint x="1185" y="1228" />
            </Array>
          </mxGeometry>
        </mxCell>
        <mxCell id="P9SKCXnRvYGnvvP028wO-111" style="edgeStyle=orthogonalEdgeStyle;rounded=0;orthogonalLoop=1;jettySize=auto;html=1;orthogonal=1;curved=1;noEdgeStyle=1;" parent="1" source="P9SKCXnRvYGnvvP028wO-112" target="P9SKCXnRvYGnvvP028wO-123" edge="1">
          <mxGeometry relative="1" as="geometry">
            <Array as="points">
              <mxPoint x="1236.6666666666667" y="1152" />
              <mxPoint x="1335" y="1228" />
            </Array>
          </mxGeometry>
        </mxCell>
        <mxCell id="P9SKCXnRvYGnvvP028wO-112" value="meter" style="whiteSpace=wrap;html=1;fillColor=#6a00ff;fontColor=#ffffff;strokeColor=#3700CC;" parent="1" vertex="1">
          <mxGeometry x="1140" y="1080" width="120" height="60" as="geometry" />
        </mxCell>
        <mxCell id="P9SKCXnRvYGnvvP028wO-113" style="edgeStyle=orthogonalEdgeStyle;rounded=0;orthogonalLoop=1;jettySize=auto;html=1;entryX=0.5;entryY=0;entryDx=0;entryDy=0;orthogonal=1;curved=1;exitX=0.5;exitY=1;exitDx=0;exitDy=0;noEdgeStyle=1;" parent="1" source="P9SKCXnRvYGnvvP028wO-117" target="P9SKCXnRvYGnvvP028wO-137" edge="1">
          <mxGeometry relative="1" as="geometry">
            <Array as="points">
              <mxPoint x="1076.25" y="1312" />
              <mxPoint x="1322.5" y="1388" />
            </Array>
          </mxGeometry>
        </mxCell>
        <mxCell id="P9SKCXnRvYGnvvP028wO-114" style="edgeStyle=orthogonalEdgeStyle;rounded=0;orthogonalLoop=1;jettySize=auto;html=1;entryX=0.5;entryY=0;entryDx=0;entryDy=0;orthogonal=1;curved=1;noEdgeStyle=1;" parent="1" source="P9SKCXnRvYGnvvP028wO-117" target="P9SKCXnRvYGnvvP028wO-140" edge="1">
          <mxGeometry relative="1" as="geometry">
            <Array as="points">
              <mxPoint x="1021.25" y="1314" />
              <mxPoint x="1022.5" y="1388" />
            </Array>
          </mxGeometry>
        </mxCell>
        <mxCell id="P9SKCXnRvYGnvvP028wO-115" style="edgeStyle=orthogonalEdgeStyle;rounded=0;orthogonalLoop=1;jettySize=auto;html=1;orthogonal=1;curved=1;noEdgeStyle=1;" parent="1" source="P9SKCXnRvYGnvvP028wO-117" target="P9SKCXnRvYGnvvP028wO-143" edge="1">
          <mxGeometry relative="1" as="geometry">
            <Array as="points">
              <mxPoint x="1048.75" y="1314" />
              <mxPoint x="1172.5" y="1388" />
            </Array>
          </mxGeometry>
        </mxCell>
        <mxCell id="P9SKCXnRvYGnvvP028wO-116" style="edgeStyle=orthogonalEdgeStyle;rounded=0;orthogonalLoop=1;jettySize=auto;html=1;orthogonal=1;curved=1;noEdgeStyle=1;" parent="1" source="P9SKCXnRvYGnvvP028wO-117" target="P9SKCXnRvYGnvvP028wO-145" edge="1">
          <mxGeometry relative="1" as="geometry">
            <Array as="points">
              <mxPoint x="993.75" y="1312" />
              <mxPoint x="960" y="1350" />
              <mxPoint x="960" y="1510" />
              <mxPoint x="1065" y="1548" />
            </Array>
          </mxGeometry>
        </mxCell>
        <mxCell id="P9SKCXnRvYGnvvP028wO-117" value="ipv4" style="whiteSpace=wrap;html=1;fillColor=#6a00ff;fontColor=#ffffff;strokeColor=#3700CC;" parent="1" vertex="1">
          <mxGeometry x="975" y="1240" width="120" height="60" as="geometry" />
        </mxCell>
        <mxCell id="P9SKCXnRvYGnvvP028wO-118" style="edgeStyle=orthogonalEdgeStyle;rounded=0;orthogonalLoop=1;jettySize=auto;html=1;orthogonal=1;curved=1;noEdgeStyle=1;" parent="1" source="P9SKCXnRvYGnvvP028wO-121" target="P9SKCXnRvYGnvvP028wO-137" edge="1">
          <mxGeometry relative="1" as="geometry">
            <Array as="points">
              <mxPoint x="1221.6666666666667" y="1312" />
              <mxPoint x="1377.5" y="1388" />
            </Array>
          </mxGeometry>
        </mxCell>
        <mxCell id="P9SKCXnRvYGnvvP028wO-119" style="edgeStyle=orthogonalEdgeStyle;rounded=0;orthogonalLoop=1;jettySize=auto;html=1;entryX=0.5;entryY=0;entryDx=0;entryDy=0;orthogonal=1;curved=1;noEdgeStyle=1;" parent="1" source="P9SKCXnRvYGnvvP028wO-121" target="P9SKCXnRvYGnvvP028wO-140" edge="1">
          <mxGeometry relative="1" as="geometry">
            <Array as="points">
              <mxPoint x="1148.3333333333333" y="1312" />
              <mxPoint x="1077.5" y="1388" />
            </Array>
          </mxGeometry>
        </mxCell>
        <mxCell id="P9SKCXnRvYGnvvP028wO-120" style="edgeStyle=orthogonalEdgeStyle;rounded=0;orthogonalLoop=1;jettySize=auto;html=1;orthogonal=1;curved=1;noEdgeStyle=1;" parent="1" source="P9SKCXnRvYGnvvP028wO-121" target="P9SKCXnRvYGnvvP028wO-143" edge="1">
          <mxGeometry relative="1" as="geometry">
            <Array as="points">
              <mxPoint x="1185" y="1314" />
              <mxPoint x="1227.5" y="1388" />
            </Array>
          </mxGeometry>
        </mxCell>
        <mxCell id="P9SKCXnRvYGnvvP028wO-121" value="ipv6" style="whiteSpace=wrap;html=1;" parent="1" vertex="1">
          <mxGeometry x="1125" y="1240" width="120" height="60" as="geometry" />
        </mxCell>
        <mxCell id="P9SKCXnRvYGnvvP028wO-122" value="" style="edgeStyle=orthogonalEdgeStyle;rounded=0;orthogonalLoop=1;jettySize=auto;html=1;orthogonal=1;curved=1;noEdgeStyle=1;" parent="1" source="P9SKCXnRvYGnvvP028wO-123" target="P9SKCXnRvYGnvvP028wO-125" edge="1">
          <mxGeometry relative="1" as="geometry">
            <Array as="points">
              <mxPoint x="1335" y="1312" />
              <mxPoint x="1472.5" y="1388" />
            </Array>
          </mxGeometry>
        </mxCell>
        <mxCell id="P9SKCXnRvYGnvvP028wO-123" value="other" style="whiteSpace=wrap;html=1;" parent="1" vertex="1">
          <mxGeometry x="1275" y="1240" width="120" height="60" as="geometry" />
        </mxCell>
        <mxCell id="P9SKCXnRvYGnvvP028wO-124" value="" style="edgeStyle=orthogonalEdgeStyle;rounded=0;orthogonalLoop=1;jettySize=auto;html=1;orthogonal=1;entryX=0.5;entryY=0;entryDx=0;entryDy=0;curved=1;noEdgeStyle=1;" parent="1" source="P9SKCXnRvYGnvvP028wO-125" target="P9SKCXnRvYGnvvP028wO-134" edge="1">
          <mxGeometry relative="1" as="geometry">
            <Array as="points">
              <mxPoint x="1500" y="1472" />
              <mxPoint x="1498.59375" y="1548" />
            </Array>
          </mxGeometry>
        </mxCell>
        <mxCell id="P9SKCXnRvYGnvvP028wO-125" value="meter" style="whiteSpace=wrap;html=1;" parent="1" vertex="1">
          <mxGeometry x="1440" y="1400" width="120" height="60" as="geometry" />
        </mxCell>
        <mxCell id="P9SKCXnRvYGnvvP028wO-126" value="trap / queue to tap device" style="whiteSpace=wrap;html=1;" parent="1" vertex="1">
          <mxGeometry x="1438.59375" y="1720" width="120" height="60" as="geometry" />
        </mxCell>
        <mxCell id="P9SKCXnRvYGnvvP028wO-127" style="edgeStyle=orthogonalEdgeStyle;rounded=0;orthogonalLoop=1;jettySize=auto;html=1;orthogonal=1;curved=1;noEdgeStyle=1;" parent="1" source="P9SKCXnRvYGnvvP028wO-128" target="P9SKCXnRvYGnvvP028wO-130" edge="1">
          <mxGeometry relative="1" as="geometry">
            <Array as="points">
              <mxPoint x="1245" y="1632" />
              <mxPoint x="1244.0806749131943" y="1704" />
            </Array>
          </mxGeometry>
        </mxCell>
        <mxCell id="P9SKCXnRvYGnvvP028wO-128" value="NAT (pre routing)&lt;div&gt;(44, 66, 64, 46)&lt;/div&gt;" style="whiteSpace=wrap;html=1;fillColor=#6a00ff;fontColor=#ffffff;strokeColor=#3700CC;" parent="1" vertex="1">
          <mxGeometry x="1185" y="1560" width="120" height="60" as="geometry" />
        </mxCell>
        <mxCell id="P9SKCXnRvYGnvvP028wO-129" style="edgeStyle=orthogonalEdgeStyle;rounded=0;orthogonalLoop=1;jettySize=auto;html=1;orthogonal=1;curved=1;noEdgeStyle=1;" parent="1" source="P9SKCXnRvYGnvvP028wO-130" target="P9SKCXnRvYGnvvP028wO-132" edge="1">
          <mxGeometry relative="1" as="geometry">
            <Array as="points">
              <mxPoint x="1244.0806749131943" y="1792" />
              <mxPoint x="1240.8851453993057" y="1868" />
            </Array>
          </mxGeometry>
        </mxCell>
        <mxCell id="P9SKCXnRvYGnvvP028wO-130" value="Routing" style="whiteSpace=wrap;html=1;fillColor=#6a00ff;fontColor=#ffffff;strokeColor=#3700CC;" parent="1" vertex="1">
          <mxGeometry x="1184.0806749131943" y="1720" width="120" height="60" as="geometry" />
        </mxCell>
        <mxCell id="P9SKCXnRvYGnvvP028wO-131" style="edgeStyle=orthogonalEdgeStyle;rounded=0;orthogonalLoop=1;jettySize=auto;html=1;orthogonal=1;curved=1;noEdgeStyle=1;" parent="1" source="P9SKCXnRvYGnvvP028wO-132" target="P9SKCXnRvYGnvvP028wO-147" edge="1">
          <mxGeometry relative="1" as="geometry">
            <Array as="points">
              <mxPoint x="1240.8851453993057" y="1952" />
              <mxPoint x="1239.287380642361" y="2028" />
            </Array>
          </mxGeometry>
        </mxCell>
        <mxCell id="P9SKCXnRvYGnvvP028wO-132" value="NAT (post routing)&lt;div&gt;(44, 66, 64, 46)&lt;/div&gt;" style="whiteSpace=wrap;html=1;fillColor=#6a00ff;fontColor=#ffffff;strokeColor=#3700CC;" parent="1" vertex="1">
          <mxGeometry x="1180.8851453993057" y="1880" width="120" height="60" as="geometry" />
        </mxCell>
        <mxCell id="P9SKCXnRvYGnvvP028wO-133" style="edgeStyle=orthogonalEdgeStyle;rounded=0;orthogonalLoop=1;jettySize=auto;html=1;orthogonal=1;curved=1;noEdgeStyle=1;" parent="1" source="P9SKCXnRvYGnvvP028wO-134" target="P9SKCXnRvYGnvvP028wO-126" edge="1">
          <mxGeometry relative="1" as="geometry">
            <Array as="points">
              <mxPoint x="1498.59375" y="1632" />
              <mxPoint x="1498.59375" y="1708" />
            </Array>
          </mxGeometry>
        </mxCell>
        <mxCell id="P9SKCXnRvYGnvvP028wO-134" value="Push QinQ" style="whiteSpace=wrap;html=1;" parent="1" vertex="1">
          <mxGeometry x="1438.59375" y="1560" width="120" height="60" as="geometry" />
        </mxCell>
        <mxCell id="P9SKCXnRvYGnvvP028wO-135" style="edgeStyle=orthogonalEdgeStyle;rounded=0;orthogonalLoop=1;jettySize=auto;html=1;entryX=0.5;entryY=0;entryDx=0;entryDy=0;orthogonal=1;curved=1;noEdgeStyle=1;" parent="1" source="P9SKCXnRvYGnvvP028wO-137" target="P9SKCXnRvYGnvvP028wO-128" edge="1">
          <mxGeometry relative="1" as="geometry">
            <Array as="points">
              <mxPoint x="1322.5" y="1472" />
              <mxPoint x="1281.6666666666667" y="1548" />
            </Array>
          </mxGeometry>
        </mxCell>
        <mxCell id="P9SKCXnRvYGnvvP028wO-136" style="edgeStyle=orthogonalEdgeStyle;rounded=0;orthogonalLoop=1;jettySize=auto;html=1;orthogonal=1;entryX=0.5;entryY=0;entryDx=0;entryDy=0;curved=1;noEdgeStyle=1;" parent="1" source="P9SKCXnRvYGnvvP028wO-137" target="P9SKCXnRvYGnvvP028wO-130" edge="1">
          <mxGeometry relative="1" as="geometry">
            <mxPoint x="1347" y="1720" as="targetPoint" />
            <Array as="points">
              <mxPoint x="1377.5" y="1472" />
              <mxPoint x="1365" y="1510" />
              <mxPoint x="1365" y="1670" />
              <mxPoint x="1288.0806749131943" y="1708" />
            </Array>
          </mxGeometry>
        </mxCell>
        <mxCell id="P9SKCXnRvYGnvvP028wO-137" value="TCP" style="whiteSpace=wrap;html=1;fillColor=#6a00ff;fontColor=#ffffff;strokeColor=#3700CC;" parent="1" vertex="1">
          <mxGeometry x="1290" y="1400" width="120" height="60" as="geometry" />
        </mxCell>
        <mxCell id="P9SKCXnRvYGnvvP028wO-138" style="edgeStyle=orthogonalEdgeStyle;rounded=0;orthogonalLoop=1;jettySize=auto;html=1;orthogonal=1;curved=1;noEdgeStyle=1;" parent="1" source="P9SKCXnRvYGnvvP028wO-140" target="P9SKCXnRvYGnvvP028wO-128" edge="1">
          <mxGeometry relative="1" as="geometry">
            <Array as="points">
              <mxPoint x="1077.5" y="1472" />
              <mxPoint x="1208.3333333333335" y="1548" />
            </Array>
          </mxGeometry>
        </mxCell>
        <mxCell id="P9SKCXnRvYGnvvP028wO-139" style="edgeStyle=orthogonalEdgeStyle;rounded=0;orthogonalLoop=1;jettySize=auto;html=1;orthogonal=1;entryX=0.5;entryY=0;entryDx=0;entryDy=0;curved=1;noEdgeStyle=1;" parent="1" source="P9SKCXnRvYGnvvP028wO-140" target="P9SKCXnRvYGnvvP028wO-130" edge="1">
          <mxGeometry relative="1" as="geometry">
            <mxPoint x="1380" y="1720" as="targetPoint" />
            <Array as="points">
              <mxPoint x="1022.5" y="1472" />
              <mxPoint x="1155" y="1510" />
              <mxPoint x="1155" y="1670" />
              <mxPoint x="1222.0806749131943" y="1706" />
            </Array>
          </mxGeometry>
        </mxCell>
        <mxCell id="P9SKCXnRvYGnvvP028wO-140" value="UDP" style="whiteSpace=wrap;html=1;" parent="1" vertex="1">
          <mxGeometry x="990" y="1400" width="120" height="60" as="geometry" />
        </mxCell>
        <mxCell id="P9SKCXnRvYGnvvP028wO-141" style="edgeStyle=orthogonalEdgeStyle;rounded=0;orthogonalLoop=1;jettySize=auto;html=1;entryX=0.5;entryY=0;entryDx=0;entryDy=0;orthogonal=1;curved=1;noEdgeStyle=1;" parent="1" source="P9SKCXnRvYGnvvP028wO-143" target="P9SKCXnRvYGnvvP028wO-128" edge="1">
          <mxGeometry relative="1" as="geometry">
            <Array as="points">
              <mxPoint x="1172.5" y="1472" />
              <mxPoint x="1245" y="1546" />
            </Array>
          </mxGeometry>
        </mxCell>
        <mxCell id="P9SKCXnRvYGnvvP028wO-142" style="edgeStyle=orthogonalEdgeStyle;rounded=0;orthogonalLoop=1;jettySize=auto;html=1;entryX=0.75;entryY=0;entryDx=0;entryDy=0;orthogonal=1;curved=1;noEdgeStyle=1;" parent="1" source="P9SKCXnRvYGnvvP028wO-143" target="P9SKCXnRvYGnvvP028wO-130" edge="1">
          <mxGeometry relative="1" as="geometry">
            <Array as="points">
              <mxPoint x="1227.5" y="1472" />
              <mxPoint x="1335" y="1510" />
              <mxPoint x="1335" y="1670" />
              <mxPoint x="1266.0806749131943" y="1706" />
            </Array>
          </mxGeometry>
        </mxCell>
        <mxCell id="P9SKCXnRvYGnvvP028wO-143" value="SCTP" style="whiteSpace=wrap;html=1;" parent="1" vertex="1">
          <mxGeometry x="1140" y="1400" width="120" height="60" as="geometry" />
        </mxCell>
        <mxCell id="P9SKCXnRvYGnvvP028wO-144" style="edgeStyle=orthogonalEdgeStyle;rounded=0;orthogonalLoop=1;jettySize=auto;html=1;entryX=0.25;entryY=0;entryDx=0;entryDy=0;orthogonal=1;curved=1;noEdgeStyle=1;" parent="1" source="P9SKCXnRvYGnvvP028wO-145" target="P9SKCXnRvYGnvvP028wO-130" edge="1">
          <mxGeometry relative="1" as="geometry">
            <Array as="points">
              <mxPoint x="1065" y="1632" />
              <mxPoint x="1200.0806749131943" y="1708" />
            </Array>
          </mxGeometry>
        </mxCell>
        <mxCell id="P9SKCXnRvYGnvvP028wO-145" value="other" style="whiteSpace=wrap;html=1;" parent="1" vertex="1">
          <mxGeometry x="1005" y="1560" width="120" height="60" as="geometry" />
        </mxCell>
        <mxCell id="P9SKCXnRvYGnvvP028wO-146" value="" style="edgeStyle=orthogonalEdgeStyle;rounded=0;orthogonalLoop=1;jettySize=auto;html=1;orthogonal=1;curved=1;noEdgeStyle=1;" parent="1" source="P9SKCXnRvYGnvvP028wO-147" target="P9SKCXnRvYGnvvP028wO-148" edge="1">
          <mxGeometry relative="1" as="geometry">
            <Array as="points">
              <mxPoint x="1239.287380642361" y="2112" />
              <mxPoint x="1239.287380642361" y="2188" />
            </Array>
          </mxGeometry>
        </mxCell>
        <mxCell id="P9SKCXnRvYGnvvP028wO-147" value="Encap / egress marking" style="whiteSpace=wrap;html=1;fillColor=#6a00ff;fontColor=#ffffff;strokeColor=#3700CC;" parent="1" vertex="1">
          <mxGeometry x="1179.287380642361" y="2040" width="120" height="60" as="geometry" />
        </mxCell>
        <mxCell id="P9SKCXnRvYGnvvP028wO-148" value="queue" style="whiteSpace=wrap;html=1;fillColor=#6a00ff;fontColor=#ffffff;strokeColor=#3700CC;" parent="1" vertex="1">
          <mxGeometry x="1179.287380642361" y="2200" width="120" height="60" as="geometry" />
        </mxCell>
        <mxCell id="P9SKCXnRvYGnvvP028wO-149" value="" style="edgeStyle=orthogonalEdgeStyle;rounded=0;orthogonalLoop=1;jettySize=auto;html=1;orthogonal=1;curved=1;noEdgeStyle=1;" parent="1" source="P9SKCXnRvYGnvvP028wO-151" target="P9SKCXnRvYGnvvP028wO-153" edge="1">
          <mxGeometry relative="1" as="geometry">
            <Array as="points">
              <mxPoint x="2132.5" y="-18" />
              <mxPoint x="2085" y="58" />
            </Array>
          </mxGeometry>
        </mxCell>
        <mxCell id="P9SKCXnRvYGnvvP028wO-150" style="edgeStyle=orthogonalEdgeStyle;rounded=0;orthogonalLoop=1;jettySize=auto;html=1;entryX=0.5;entryY=0;entryDx=0;entryDy=0;orthogonal=1;curved=1;noEdgeStyle=1;" parent="1" source="P9SKCXnRvYGnvvP028wO-151" target="P9SKCXnRvYGnvvP028wO-156" edge="1">
          <mxGeometry relative="1" as="geometry">
            <mxPoint x="2070" y="70" as="targetPoint" />
            <Array as="points">
              <mxPoint x="2187.5" y="-18" />
              <mxPoint x="2235" y="58" />
            </Array>
          </mxGeometry>
        </mxCell>
        <mxCell id="P9SKCXnRvYGnvvP028wO-151" value="root" style="whiteSpace=wrap;html=1;fillColor=#f0a30a;fontColor=#000000;strokeColor=#BD7000;" parent="1" vertex="1">
          <mxGeometry x="2100" y="-90" width="120" height="60" as="geometry" />
        </mxCell>
        <mxCell id="P9SKCXnRvYGnvvP028wO-152" value="" style="edgeStyle=orthogonalEdgeStyle;rounded=0;orthogonalLoop=1;jettySize=auto;html=1;orthogonal=1;curved=1;noEdgeStyle=1;" parent="1" source="P9SKCXnRvYGnvvP028wO-153" target="P9SKCXnRvYGnvvP028wO-158" edge="1">
          <mxGeometry relative="1" as="geometry">
            <Array as="points">
              <mxPoint x="2085" y="142" />
              <mxPoint x="2040" y="180" />
              <mxPoint x="2040" y="340" />
              <mxPoint x="1995" y="378" />
            </Array>
          </mxGeometry>
        </mxCell>
        <mxCell id="P9SKCXnRvYGnvvP028wO-153" value="checksums invalid" style="whiteSpace=wrap;html=1;" parent="1" vertex="1">
          <mxGeometry x="2025" y="70" width="120" height="60" as="geometry" />
        </mxCell>
        <mxCell id="P9SKCXnRvYGnvvP028wO-154" value="" style="edgeStyle=orthogonalEdgeStyle;rounded=0;orthogonalLoop=1;jettySize=auto;html=1;orthogonal=1;curved=1;noEdgeStyle=1;" parent="1" source="P9SKCXnRvYGnvvP028wO-156" target="P9SKCXnRvYGnvvP028wO-164" edge="1">
          <mxGeometry relative="1" as="geometry">
            <Array as="points">
              <mxPoint x="2207.5" y="142" />
              <mxPoint x="2160" y="218" />
            </Array>
          </mxGeometry>
        </mxCell>
        <mxCell id="P9SKCXnRvYGnvvP028wO-155" style="edgeStyle=orthogonalEdgeStyle;rounded=0;orthogonalLoop=1;jettySize=auto;html=1;orthogonal=1;curved=1;noEdgeStyle=1;" parent="1" source="P9SKCXnRvYGnvvP028wO-156" target="P9SKCXnRvYGnvvP028wO-166" edge="1">
          <mxGeometry relative="1" as="geometry">
            <Array as="points">
              <mxPoint x="2262.5" y="142" />
              <mxPoint x="2385" y="180" />
              <mxPoint x="2385" y="340" />
              <mxPoint x="2385" y="340" />
              <mxPoint x="2385" y="500" />
              <mxPoint x="2385" y="500" />
              <mxPoint x="2385" y="660" />
              <mxPoint x="2385" y="660" />
              <mxPoint x="2385" y="820" />
              <mxPoint x="2385" y="820" />
              <mxPoint x="2385" y="980" />
              <mxPoint x="2385" y="980" />
              <mxPoint x="2385" y="1140" />
              <mxPoint x="2385" y="1178" />
            </Array>
          </mxGeometry>
        </mxCell>
        <mxCell id="P9SKCXnRvYGnvvP028wO-156" value="checksums valid" style="whiteSpace=wrap;html=1;fillColor=#f0a30a;fontColor=#000000;strokeColor=#BD7000;" parent="1" vertex="1">
          <mxGeometry x="2175" y="70" width="120" height="60" as="geometry" />
        </mxCell>
        <mxCell id="P9SKCXnRvYGnvvP028wO-157" value="" style="edgeStyle=orthogonalEdgeStyle;rounded=0;orthogonalLoop=1;jettySize=auto;html=1;orthogonal=1;curved=1;noEdgeStyle=1;" parent="1" source="P9SKCXnRvYGnvvP028wO-158" target="P9SKCXnRvYGnvvP028wO-160" edge="1">
          <mxGeometry relative="1" as="geometry">
            <Array as="points">
              <mxPoint x="1995" y="462" />
              <mxPoint x="2042.5" y="538" />
            </Array>
          </mxGeometry>
        </mxCell>
        <mxCell id="P9SKCXnRvYGnvvP028wO-158" value="count" style="whiteSpace=wrap;html=1;" parent="1" vertex="1">
          <mxGeometry x="1935" y="390" width="120" height="60" as="geometry" />
        </mxCell>
        <mxCell id="P9SKCXnRvYGnvvP028wO-159" value="" style="edgeStyle=orthogonalEdgeStyle;rounded=0;orthogonalLoop=1;jettySize=auto;html=1;orthogonal=1;curved=1;noEdgeStyle=1;" parent="1" source="P9SKCXnRvYGnvvP028wO-160" target="P9SKCXnRvYGnvvP028wO-161" edge="1">
          <mxGeometry relative="1" as="geometry">
            <Array as="points">
              <mxPoint x="2070" y="622" />
              <mxPoint x="2070" y="698" />
            </Array>
          </mxGeometry>
        </mxCell>
        <mxCell id="P9SKCXnRvYGnvvP028wO-160" value="sample" style="whiteSpace=wrap;html=1;" parent="1" vertex="1">
          <mxGeometry x="2010" y="550" width="120" height="60" as="geometry" />
        </mxCell>
        <mxCell id="P9SKCXnRvYGnvvP028wO-161" value="drop" style="whiteSpace=wrap;html=1;" parent="1" vertex="1">
          <mxGeometry x="2010" y="710" width="120" height="60" as="geometry" />
        </mxCell>
        <mxCell id="P9SKCXnRvYGnvvP028wO-162" value="" style="edgeStyle=orthogonalEdgeStyle;rounded=0;orthogonalLoop=1;jettySize=auto;html=1;orthogonal=1;curved=1;noEdgeStyle=1;" parent="1" source="P9SKCXnRvYGnvvP028wO-164" target="P9SKCXnRvYGnvvP028wO-168" edge="1">
          <mxGeometry relative="1" as="geometry">
            <Array as="points">
              <mxPoint x="2132.5" y="302" />
              <mxPoint x="2145" y="378" />
            </Array>
          </mxGeometry>
        </mxCell>
        <mxCell id="P9SKCXnRvYGnvvP028wO-163" style="edgeStyle=orthogonalEdgeStyle;rounded=0;orthogonalLoop=1;jettySize=auto;html=1;entryX=0.5;entryY=0;entryDx=0;entryDy=0;orthogonal=1;curved=1;noEdgeStyle=1;" parent="1" source="P9SKCXnRvYGnvvP028wO-164" target="P9SKCXnRvYGnvvP028wO-170" edge="1">
          <mxGeometry relative="1" as="geometry">
            <Array as="points">
              <mxPoint x="2187.5" y="302" />
              <mxPoint x="2295" y="378" />
            </Array>
          </mxGeometry>
        </mxCell>
        <mxCell id="P9SKCXnRvYGnvvP028wO-164" value="vpc lookup" style="whiteSpace=wrap;html=1;" parent="1" vertex="1">
          <mxGeometry x="2100" y="230" width="120" height="60" as="geometry" />
        </mxCell>
        <mxCell id="P9SKCXnRvYGnvvP028wO-165" style="edgeStyle=orthogonalEdgeStyle;rounded=0;orthogonalLoop=1;jettySize=auto;html=1;entryX=0.5;entryY=0;entryDx=0;entryDy=0;orthogonal=1;curved=1;noEdgeStyle=1;" parent="1" source="P9SKCXnRvYGnvvP028wO-166" target="P9SKCXnRvYGnvvP028wO-193" edge="1">
          <mxGeometry relative="1" as="geometry">
            <Array as="points">
              <mxPoint x="2385" y="1262" />
              <mxPoint x="2427.5" y="1338" />
            </Array>
          </mxGeometry>
        </mxCell>
        <mxCell id="P9SKCXnRvYGnvvP028wO-166" value="control" style="whiteSpace=wrap;html=1;fillColor=#f0a30a;fontColor=#000000;strokeColor=#BD7000;" parent="1" vertex="1">
          <mxGeometry x="2325" y="1190" width="120" height="60" as="geometry" />
        </mxCell>
        <mxCell id="P9SKCXnRvYGnvvP028wO-167" style="edgeStyle=orthogonalEdgeStyle;rounded=0;orthogonalLoop=1;jettySize=auto;html=1;entryX=0.5;entryY=0;entryDx=0;entryDy=0;orthogonal=1;curved=1;noEdgeStyle=1;" parent="1" source="P9SKCXnRvYGnvvP028wO-168" target="P9SKCXnRvYGnvvP028wO-160" edge="1">
          <mxGeometry relative="1" as="geometry">
            <Array as="points">
              <mxPoint x="2145" y="462" />
              <mxPoint x="2097.5" y="538" />
            </Array>
          </mxGeometry>
        </mxCell>
        <mxCell id="P9SKCXnRvYGnvvP028wO-168" value="vpc miss" style="whiteSpace=wrap;html=1;" parent="1" vertex="1">
          <mxGeometry x="2085" y="390" width="120" height="60" as="geometry" />
        </mxCell>
        <mxCell id="P9SKCXnRvYGnvvP028wO-169" value="" style="edgeStyle=orthogonalEdgeStyle;rounded=0;orthogonalLoop=1;jettySize=auto;html=1;orthogonal=1;curved=1;noEdgeStyle=1;" parent="1" source="P9SKCXnRvYGnvvP028wO-170" target="P9SKCXnRvYGnvvP028wO-172" edge="1">
          <mxGeometry relative="1" as="geometry">
            <Array as="points">
              <mxPoint x="2295" y="462" />
              <mxPoint x="2220" y="538" />
            </Array>
          </mxGeometry>
        </mxCell>
        <mxCell id="P9SKCXnRvYGnvvP028wO-170" value="vpc match" style="whiteSpace=wrap;html=1;" parent="1" vertex="1">
          <mxGeometry x="2235" y="390" width="120" height="60" as="geometry" />
        </mxCell>
        <mxCell id="P9SKCXnRvYGnvvP028wO-171" value="" style="edgeStyle=orthogonalEdgeStyle;rounded=0;orthogonalLoop=1;jettySize=auto;html=1;orthogonal=1;curved=1;noEdgeStyle=1;" parent="1" source="P9SKCXnRvYGnvvP028wO-172" target="P9SKCXnRvYGnvvP028wO-174" edge="1">
          <mxGeometry relative="1" as="geometry">
            <Array as="points">
              <mxPoint x="2220" y="622" />
              <mxPoint x="2220" y="698" />
            </Array>
          </mxGeometry>
        </mxCell>
        <mxCell id="P9SKCXnRvYGnvvP028wO-172" value="mark frame" style="whiteSpace=wrap;html=1;" parent="1" vertex="1">
          <mxGeometry x="2160" y="550" width="120" height="60" as="geometry" />
        </mxCell>
        <mxCell id="P9SKCXnRvYGnvvP028wO-173" value="" style="edgeStyle=orthogonalEdgeStyle;rounded=0;orthogonalLoop=1;jettySize=auto;html=1;orthogonal=1;curved=1;noEdgeStyle=1;" parent="1" source="P9SKCXnRvYGnvvP028wO-174" target="P9SKCXnRvYGnvvP028wO-176" edge="1">
          <mxGeometry relative="1" as="geometry">
            <Array as="points">
              <mxPoint x="2220" y="782" />
              <mxPoint x="2145" y="858" />
            </Array>
          </mxGeometry>
        </mxCell>
        <mxCell id="P9SKCXnRvYGnvvP028wO-174" value="decapsulate" style="whiteSpace=wrap;html=1;" parent="1" vertex="1">
          <mxGeometry x="2160" y="710" width="120" height="60" as="geometry" />
        </mxCell>
        <mxCell id="P9SKCXnRvYGnvvP028wO-175" value="" style="edgeStyle=orthogonalEdgeStyle;rounded=0;orthogonalLoop=1;jettySize=auto;html=1;orthogonal=1;curved=1;noEdgeStyle=1;" parent="1" source="P9SKCXnRvYGnvvP028wO-176" target="P9SKCXnRvYGnvvP028wO-180" edge="1">
          <mxGeometry relative="1" as="geometry">
            <Array as="points">
              <mxPoint x="2145" y="942" />
              <mxPoint x="2100" y="1018" />
            </Array>
          </mxGeometry>
        </mxCell>
        <mxCell id="P9SKCXnRvYGnvvP028wO-176" value="count" style="whiteSpace=wrap;html=1;" parent="1" vertex="1">
          <mxGeometry x="2085" y="870" width="120" height="60" as="geometry" />
        </mxCell>
        <mxCell id="P9SKCXnRvYGnvvP028wO-177" value="" style="edgeStyle=orthogonalEdgeStyle;rounded=0;orthogonalLoop=1;jettySize=auto;html=1;orthogonal=1;curved=1;noEdgeStyle=1;" parent="1" source="P9SKCXnRvYGnvvP028wO-180" target="P9SKCXnRvYGnvvP028wO-185" edge="1">
          <mxGeometry relative="1" as="geometry">
            <Array as="points">
              <mxPoint x="2063.3333333333335" y="1102" />
              <mxPoint x="1935" y="1178" />
            </Array>
          </mxGeometry>
        </mxCell>
        <mxCell id="P9SKCXnRvYGnvvP028wO-178" style="edgeStyle=orthogonalEdgeStyle;rounded=0;orthogonalLoop=1;jettySize=auto;html=1;entryX=0.5;entryY=0;entryDx=0;entryDy=0;orthogonal=1;curved=1;noEdgeStyle=1;" parent="1" source="P9SKCXnRvYGnvvP028wO-180" target="P9SKCXnRvYGnvvP028wO-189" edge="1">
          <mxGeometry relative="1" as="geometry">
            <Array as="points">
              <mxPoint x="2100" y="1104" />
              <mxPoint x="2085" y="1178" />
            </Array>
          </mxGeometry>
        </mxCell>
        <mxCell id="P9SKCXnRvYGnvvP028wO-179" style="edgeStyle=orthogonalEdgeStyle;rounded=0;orthogonalLoop=1;jettySize=auto;html=1;orthogonal=1;curved=1;noEdgeStyle=1;" parent="1" source="P9SKCXnRvYGnvvP028wO-180" target="P9SKCXnRvYGnvvP028wO-191" edge="1">
          <mxGeometry relative="1" as="geometry">
            <Array as="points">
              <mxPoint x="2136.6666666666665" y="1102" />
              <mxPoint x="2235" y="1178" />
            </Array>
          </mxGeometry>
        </mxCell>
        <mxCell id="P9SKCXnRvYGnvvP028wO-180" value="meter" style="whiteSpace=wrap;html=1;" parent="1" vertex="1">
          <mxGeometry x="2040" y="1030" width="120" height="60" as="geometry" />
        </mxCell>
        <mxCell id="P9SKCXnRvYGnvvP028wO-181" style="edgeStyle=orthogonalEdgeStyle;rounded=0;orthogonalLoop=1;jettySize=auto;html=1;entryX=0.5;entryY=0;entryDx=0;entryDy=0;orthogonal=1;curved=1;exitX=0.5;exitY=1;exitDx=0;exitDy=0;noEdgeStyle=1;" parent="1" source="P9SKCXnRvYGnvvP028wO-185" target="P9SKCXnRvYGnvvP028wO-205" edge="1">
          <mxGeometry relative="1" as="geometry">
            <Array as="points">
              <mxPoint x="1976.25" y="1262" />
              <mxPoint x="2222.5" y="1338" />
            </Array>
          </mxGeometry>
        </mxCell>
        <mxCell id="P9SKCXnRvYGnvvP028wO-182" style="edgeStyle=orthogonalEdgeStyle;rounded=0;orthogonalLoop=1;jettySize=auto;html=1;entryX=0.5;entryY=0;entryDx=0;entryDy=0;orthogonal=1;curved=1;noEdgeStyle=1;" parent="1" source="P9SKCXnRvYGnvvP028wO-185" target="P9SKCXnRvYGnvvP028wO-208" edge="1">
          <mxGeometry relative="1" as="geometry">
            <Array as="points">
              <mxPoint x="1921.25" y="1264" />
              <mxPoint x="1922.5" y="1338" />
            </Array>
          </mxGeometry>
        </mxCell>
        <mxCell id="P9SKCXnRvYGnvvP028wO-183" style="edgeStyle=orthogonalEdgeStyle;rounded=0;orthogonalLoop=1;jettySize=auto;html=1;orthogonal=1;curved=1;noEdgeStyle=1;" parent="1" source="P9SKCXnRvYGnvvP028wO-185" target="P9SKCXnRvYGnvvP028wO-211" edge="1">
          <mxGeometry relative="1" as="geometry">
            <Array as="points">
              <mxPoint x="1948.75" y="1264" />
              <mxPoint x="2072.5" y="1338" />
            </Array>
          </mxGeometry>
        </mxCell>
        <mxCell id="P9SKCXnRvYGnvvP028wO-184" style="edgeStyle=orthogonalEdgeStyle;rounded=0;orthogonalLoop=1;jettySize=auto;html=1;orthogonal=1;curved=1;noEdgeStyle=1;" parent="1" source="P9SKCXnRvYGnvvP028wO-185" target="P9SKCXnRvYGnvvP028wO-213" edge="1">
          <mxGeometry relative="1" as="geometry">
            <Array as="points">
              <mxPoint x="1893.75" y="1262" />
              <mxPoint x="1860" y="1300" />
              <mxPoint x="1860" y="1460" />
              <mxPoint x="1965" y="1498" />
            </Array>
          </mxGeometry>
        </mxCell>
        <mxCell id="P9SKCXnRvYGnvvP028wO-185" value="ipv4" style="whiteSpace=wrap;html=1;" parent="1" vertex="1">
          <mxGeometry x="1875" y="1190" width="120" height="60" as="geometry" />
        </mxCell>
        <mxCell id="P9SKCXnRvYGnvvP028wO-186" style="edgeStyle=orthogonalEdgeStyle;rounded=0;orthogonalLoop=1;jettySize=auto;html=1;orthogonal=1;curved=1;noEdgeStyle=1;" parent="1" source="P9SKCXnRvYGnvvP028wO-189" target="P9SKCXnRvYGnvvP028wO-205" edge="1">
          <mxGeometry relative="1" as="geometry">
            <Array as="points">
              <mxPoint x="2121.6666666666665" y="1262" />
              <mxPoint x="2277.5" y="1338" />
            </Array>
          </mxGeometry>
        </mxCell>
        <mxCell id="P9SKCXnRvYGnvvP028wO-187" style="edgeStyle=orthogonalEdgeStyle;rounded=0;orthogonalLoop=1;jettySize=auto;html=1;entryX=0.5;entryY=0;entryDx=0;entryDy=0;orthogonal=1;curved=1;noEdgeStyle=1;" parent="1" source="P9SKCXnRvYGnvvP028wO-189" target="P9SKCXnRvYGnvvP028wO-208" edge="1">
          <mxGeometry relative="1" as="geometry">
            <Array as="points">
              <mxPoint x="2048.3333333333335" y="1262" />
              <mxPoint x="1977.5" y="1338" />
            </Array>
          </mxGeometry>
        </mxCell>
        <mxCell id="P9SKCXnRvYGnvvP028wO-188" style="edgeStyle=orthogonalEdgeStyle;rounded=0;orthogonalLoop=1;jettySize=auto;html=1;orthogonal=1;curved=1;noEdgeStyle=1;" parent="1" source="P9SKCXnRvYGnvvP028wO-189" target="P9SKCXnRvYGnvvP028wO-211" edge="1">
          <mxGeometry relative="1" as="geometry">
            <Array as="points">
              <mxPoint x="2085" y="1264" />
              <mxPoint x="2127.5" y="1338" />
            </Array>
          </mxGeometry>
        </mxCell>
        <mxCell id="P9SKCXnRvYGnvvP028wO-189" value="ipv6" style="whiteSpace=wrap;html=1;" parent="1" vertex="1">
          <mxGeometry x="2025" y="1190" width="120" height="60" as="geometry" />
        </mxCell>
        <mxCell id="P9SKCXnRvYGnvvP028wO-190" value="" style="edgeStyle=orthogonalEdgeStyle;rounded=0;orthogonalLoop=1;jettySize=auto;html=1;orthogonal=1;curved=1;noEdgeStyle=1;" parent="1" source="P9SKCXnRvYGnvvP028wO-191" target="P9SKCXnRvYGnvvP028wO-193" edge="1">
          <mxGeometry relative="1" as="geometry">
            <Array as="points">
              <mxPoint x="2235" y="1262" />
              <mxPoint x="2372.5" y="1338" />
            </Array>
          </mxGeometry>
        </mxCell>
        <mxCell id="P9SKCXnRvYGnvvP028wO-191" value="other" style="whiteSpace=wrap;html=1;" parent="1" vertex="1">
          <mxGeometry x="2175" y="1190" width="120" height="60" as="geometry" />
        </mxCell>
        <mxCell id="P9SKCXnRvYGnvvP028wO-192" value="" style="edgeStyle=orthogonalEdgeStyle;rounded=0;orthogonalLoop=1;jettySize=auto;html=1;orthogonal=1;entryX=0.5;entryY=0;entryDx=0;entryDy=0;curved=1;noEdgeStyle=1;" parent="1" source="P9SKCXnRvYGnvvP028wO-193" target="P9SKCXnRvYGnvvP028wO-202" edge="1">
          <mxGeometry relative="1" as="geometry">
            <Array as="points">
              <mxPoint x="2400" y="1422" />
              <mxPoint x="2398.59375" y="1498" />
            </Array>
          </mxGeometry>
        </mxCell>
        <mxCell id="P9SKCXnRvYGnvvP028wO-193" value="meter" style="whiteSpace=wrap;html=1;fillColor=#f0a30a;fontColor=#000000;strokeColor=#BD7000;" parent="1" vertex="1">
          <mxGeometry x="2340" y="1350" width="120" height="60" as="geometry" />
        </mxCell>
        <mxCell id="P9SKCXnRvYGnvvP028wO-194" value="trap / queue to tap device" style="whiteSpace=wrap;html=1;fillColor=#f0a30a;fontColor=#000000;strokeColor=#BD7000;" parent="1" vertex="1">
          <mxGeometry x="2338.59375" y="1670" width="120" height="60" as="geometry" />
        </mxCell>
        <mxCell id="P9SKCXnRvYGnvvP028wO-195" style="edgeStyle=orthogonalEdgeStyle;rounded=0;orthogonalLoop=1;jettySize=auto;html=1;orthogonal=1;curved=1;noEdgeStyle=1;" parent="1" source="P9SKCXnRvYGnvvP028wO-196" target="P9SKCXnRvYGnvvP028wO-198" edge="1">
          <mxGeometry relative="1" as="geometry">
            <Array as="points">
              <mxPoint x="2145" y="1582" />
              <mxPoint x="2144.0806749131943" y="1654" />
            </Array>
          </mxGeometry>
        </mxCell>
        <mxCell id="P9SKCXnRvYGnvvP028wO-196" value="NAT (pre routing)&lt;div&gt;(44, 66, 64, 46)&lt;/div&gt;" style="whiteSpace=wrap;html=1;" parent="1" vertex="1">
          <mxGeometry x="2085" y="1510" width="120" height="60" as="geometry" />
        </mxCell>
        <mxCell id="P9SKCXnRvYGnvvP028wO-197" style="edgeStyle=orthogonalEdgeStyle;rounded=0;orthogonalLoop=1;jettySize=auto;html=1;orthogonal=1;curved=1;noEdgeStyle=1;" parent="1" source="P9SKCXnRvYGnvvP028wO-198" target="P9SKCXnRvYGnvvP028wO-200" edge="1">
          <mxGeometry relative="1" as="geometry">
            <Array as="points">
              <mxPoint x="2144.0806749131943" y="1742" />
              <mxPoint x="2140.8851453993057" y="1818" />
            </Array>
          </mxGeometry>
        </mxCell>
        <mxCell id="P9SKCXnRvYGnvvP028wO-198" value="Routing" style="whiteSpace=wrap;html=1;" parent="1" vertex="1">
          <mxGeometry x="2084.0806749131943" y="1670" width="120" height="60" as="geometry" />
        </mxCell>
        <mxCell id="P9SKCXnRvYGnvvP028wO-199" style="edgeStyle=orthogonalEdgeStyle;rounded=0;orthogonalLoop=1;jettySize=auto;html=1;orthogonal=1;curved=1;noEdgeStyle=1;" parent="1" source="P9SKCXnRvYGnvvP028wO-200" target="P9SKCXnRvYGnvvP028wO-215" edge="1">
          <mxGeometry relative="1" as="geometry">
            <Array as="points">
              <mxPoint x="2140.8851453993057" y="1902" />
              <mxPoint x="2139.2873806423613" y="1978" />
            </Array>
          </mxGeometry>
        </mxCell>
        <mxCell id="P9SKCXnRvYGnvvP028wO-200" value="NAT (post routing)&lt;div&gt;(44, 66, 64, 46)&lt;/div&gt;" style="whiteSpace=wrap;html=1;" parent="1" vertex="1">
          <mxGeometry x="2080.8851453993057" y="1830" width="120" height="60" as="geometry" />
        </mxCell>
        <mxCell id="P9SKCXnRvYGnvvP028wO-201" style="edgeStyle=orthogonalEdgeStyle;rounded=0;orthogonalLoop=1;jettySize=auto;html=1;orthogonal=1;curved=1;noEdgeStyle=1;" parent="1" source="P9SKCXnRvYGnvvP028wO-202" target="P9SKCXnRvYGnvvP028wO-194" edge="1">
          <mxGeometry relative="1" as="geometry">
            <Array as="points">
              <mxPoint x="2398.59375" y="1582" />
              <mxPoint x="2398.59375" y="1658" />
            </Array>
          </mxGeometry>
        </mxCell>
        <mxCell id="P9SKCXnRvYGnvvP028wO-202" value="Push QinQ" style="whiteSpace=wrap;html=1;fillColor=#f0a30a;fontColor=#000000;strokeColor=#BD7000;" parent="1" vertex="1">
          <mxGeometry x="2338.59375" y="1510" width="120" height="60" as="geometry" />
        </mxCell>
        <mxCell id="P9SKCXnRvYGnvvP028wO-203" style="edgeStyle=orthogonalEdgeStyle;rounded=0;orthogonalLoop=1;jettySize=auto;html=1;entryX=0.5;entryY=0;entryDx=0;entryDy=0;orthogonal=1;curved=1;noEdgeStyle=1;" parent="1" source="P9SKCXnRvYGnvvP028wO-205" target="P9SKCXnRvYGnvvP028wO-196" edge="1">
          <mxGeometry relative="1" as="geometry">
            <Array as="points">
              <mxPoint x="2222.5" y="1422" />
              <mxPoint x="2181.6666666666665" y="1498" />
            </Array>
          </mxGeometry>
        </mxCell>
        <mxCell id="P9SKCXnRvYGnvvP028wO-204" style="edgeStyle=orthogonalEdgeStyle;rounded=0;orthogonalLoop=1;jettySize=auto;html=1;orthogonal=1;entryX=0.5;entryY=0;entryDx=0;entryDy=0;curved=1;noEdgeStyle=1;" parent="1" source="P9SKCXnRvYGnvvP028wO-205" target="P9SKCXnRvYGnvvP028wO-198" edge="1">
          <mxGeometry relative="1" as="geometry">
            <mxPoint x="2247" y="1670" as="targetPoint" />
            <Array as="points">
              <mxPoint x="2277.5" y="1422" />
              <mxPoint x="2265" y="1460" />
              <mxPoint x="2265" y="1620" />
              <mxPoint x="2188.0806749131943" y="1658" />
            </Array>
          </mxGeometry>
        </mxCell>
        <mxCell id="P9SKCXnRvYGnvvP028wO-205" value="TCP" style="whiteSpace=wrap;html=1;" parent="1" vertex="1">
          <mxGeometry x="2190" y="1350" width="120" height="60" as="geometry" />
        </mxCell>
        <mxCell id="P9SKCXnRvYGnvvP028wO-206" style="edgeStyle=orthogonalEdgeStyle;rounded=0;orthogonalLoop=1;jettySize=auto;html=1;orthogonal=1;curved=1;noEdgeStyle=1;" parent="1" source="P9SKCXnRvYGnvvP028wO-208" target="P9SKCXnRvYGnvvP028wO-196" edge="1">
          <mxGeometry relative="1" as="geometry">
            <Array as="points">
              <mxPoint x="1977.5" y="1422" />
              <mxPoint x="2108.3333333333335" y="1498" />
            </Array>
          </mxGeometry>
        </mxCell>
        <mxCell id="P9SKCXnRvYGnvvP028wO-207" style="edgeStyle=orthogonalEdgeStyle;rounded=0;orthogonalLoop=1;jettySize=auto;html=1;orthogonal=1;entryX=0.5;entryY=0;entryDx=0;entryDy=0;curved=1;noEdgeStyle=1;" parent="1" source="P9SKCXnRvYGnvvP028wO-208" target="P9SKCXnRvYGnvvP028wO-198" edge="1">
          <mxGeometry relative="1" as="geometry">
            <mxPoint x="2280" y="1670" as="targetPoint" />
            <Array as="points">
              <mxPoint x="1922.5" y="1422" />
              <mxPoint x="2055" y="1460" />
              <mxPoint x="2055" y="1620" />
              <mxPoint x="2122.0806749131943" y="1656" />
            </Array>
          </mxGeometry>
        </mxCell>
        <mxCell id="P9SKCXnRvYGnvvP028wO-208" value="UDP" style="whiteSpace=wrap;html=1;" parent="1" vertex="1">
          <mxGeometry x="1890" y="1350" width="120" height="60" as="geometry" />
        </mxCell>
        <mxCell id="P9SKCXnRvYGnvvP028wO-209" style="edgeStyle=orthogonalEdgeStyle;rounded=0;orthogonalLoop=1;jettySize=auto;html=1;entryX=0.5;entryY=0;entryDx=0;entryDy=0;orthogonal=1;curved=1;noEdgeStyle=1;" parent="1" source="P9SKCXnRvYGnvvP028wO-211" target="P9SKCXnRvYGnvvP028wO-196" edge="1">
          <mxGeometry relative="1" as="geometry">
            <Array as="points">
              <mxPoint x="2072.5" y="1422" />
              <mxPoint x="2145" y="1496" />
            </Array>
          </mxGeometry>
        </mxCell>
        <mxCell id="P9SKCXnRvYGnvvP028wO-210" style="edgeStyle=orthogonalEdgeStyle;rounded=0;orthogonalLoop=1;jettySize=auto;html=1;entryX=0.75;entryY=0;entryDx=0;entryDy=0;orthogonal=1;curved=1;noEdgeStyle=1;" parent="1" source="P9SKCXnRvYGnvvP028wO-211" target="P9SKCXnRvYGnvvP028wO-198" edge="1">
          <mxGeometry relative="1" as="geometry">
            <Array as="points">
              <mxPoint x="2127.5" y="1422" />
              <mxPoint x="2235" y="1460" />
              <mxPoint x="2235" y="1620" />
              <mxPoint x="2166.0806749131943" y="1656" />
            </Array>
          </mxGeometry>
        </mxCell>
        <mxCell id="P9SKCXnRvYGnvvP028wO-211" value="SCTP" style="whiteSpace=wrap;html=1;" parent="1" vertex="1">
          <mxGeometry x="2040" y="1350" width="120" height="60" as="geometry" />
        </mxCell>
        <mxCell id="P9SKCXnRvYGnvvP028wO-212" style="edgeStyle=orthogonalEdgeStyle;rounded=0;orthogonalLoop=1;jettySize=auto;html=1;entryX=0.25;entryY=0;entryDx=0;entryDy=0;orthogonal=1;curved=1;noEdgeStyle=1;" parent="1" source="P9SKCXnRvYGnvvP028wO-213" target="P9SKCXnRvYGnvvP028wO-198" edge="1">
          <mxGeometry relative="1" as="geometry">
            <Array as="points">
              <mxPoint x="1965" y="1582" />
              <mxPoint x="2100.0806749131943" y="1658" />
            </Array>
          </mxGeometry>
        </mxCell>
        <mxCell id="P9SKCXnRvYGnvvP028wO-213" value="other" style="whiteSpace=wrap;html=1;" parent="1" vertex="1">
          <mxGeometry x="1905" y="1510" width="120" height="60" as="geometry" />
        </mxCell>
        <mxCell id="P9SKCXnRvYGnvvP028wO-214" value="" style="edgeStyle=orthogonalEdgeStyle;rounded=0;orthogonalLoop=1;jettySize=auto;html=1;orthogonal=1;curved=1;noEdgeStyle=1;" parent="1" source="P9SKCXnRvYGnvvP028wO-215" target="P9SKCXnRvYGnvvP028wO-216" edge="1">
          <mxGeometry relative="1" as="geometry">
            <Array as="points">
              <mxPoint x="2139.2873806423613" y="2062" />
              <mxPoint x="2139.2873806423613" y="2138" />
            </Array>
          </mxGeometry>
        </mxCell>
        <mxCell id="P9SKCXnRvYGnvvP028wO-215" value="Encap / egress marking" style="whiteSpace=wrap;html=1;" parent="1" vertex="1">
          <mxGeometry x="2079.2873806423613" y="1990" width="120" height="60" as="geometry" />
        </mxCell>
        <mxCell id="P9SKCXnRvYGnvvP028wO-216" value="queue" style="whiteSpace=wrap;html=1;" parent="1" vertex="1">
          <mxGeometry x="2079.2873806423613" y="2150" width="120" height="60" as="geometry" />
        </mxCell>
        <mxCell id="P9SKCXnRvYGnvvP028wO-226" value="" style="edgeStyle=orthogonalEdgeStyle;rounded=0;orthogonalLoop=1;jettySize=auto;html=1;orthogonal=1;curved=1;noEdgeStyle=1;" parent="1" source="P9SKCXnRvYGnvvP028wO-228" target="P9SKCXnRvYGnvvP028wO-230" edge="1">
          <mxGeometry relative="1" as="geometry">
            <Array as="points">
              <mxPoint x="3692.5" y="-18" />
              <mxPoint x="3645" y="58" />
            </Array>
          </mxGeometry>
        </mxCell>
        <mxCell id="P9SKCXnRvYGnvvP028wO-227" style="edgeStyle=orthogonalEdgeStyle;rounded=0;orthogonalLoop=1;jettySize=auto;html=1;entryX=0.5;entryY=0;entryDx=0;entryDy=0;orthogonal=1;curved=1;noEdgeStyle=1;" parent="1" source="P9SKCXnRvYGnvvP028wO-228" target="P9SKCXnRvYGnvvP028wO-233" edge="1">
          <mxGeometry relative="1" as="geometry">
            <mxPoint x="3630" y="70" as="targetPoint" />
            <Array as="points">
              <mxPoint x="3747.5" y="-18" />
              <mxPoint x="3795" y="58" />
            </Array>
          </mxGeometry>
        </mxCell>
        <mxCell id="P9SKCXnRvYGnvvP028wO-228" value="root" style="whiteSpace=wrap;html=1;fillColor=#6a00ff;fontColor=#ffffff;strokeColor=#3700CC;" parent="1" vertex="1">
          <mxGeometry x="3660" y="-90" width="120" height="60" as="geometry" />
        </mxCell>
        <mxCell id="P9SKCXnRvYGnvvP028wO-229" value="" style="edgeStyle=orthogonalEdgeStyle;rounded=0;orthogonalLoop=1;jettySize=auto;html=1;orthogonal=1;curved=1;noEdgeStyle=1;" parent="1" source="P9SKCXnRvYGnvvP028wO-230" target="P9SKCXnRvYGnvvP028wO-235" edge="1">
          <mxGeometry relative="1" as="geometry">
            <Array as="points">
              <mxPoint x="3645" y="142" />
              <mxPoint x="3600" y="180" />
              <mxPoint x="3600" y="340" />
              <mxPoint x="3555" y="378" />
            </Array>
          </mxGeometry>
        </mxCell>
        <mxCell id="P9SKCXnRvYGnvvP028wO-230" value="checksums invalid" style="whiteSpace=wrap;html=1;" parent="1" vertex="1">
          <mxGeometry x="3585" y="70" width="120" height="60" as="geometry" />
        </mxCell>
        <mxCell id="P9SKCXnRvYGnvvP028wO-231" value="" style="edgeStyle=orthogonalEdgeStyle;rounded=0;orthogonalLoop=1;jettySize=auto;html=1;orthogonal=1;curved=1;noEdgeStyle=1;" parent="1" source="P9SKCXnRvYGnvvP028wO-233" target="P9SKCXnRvYGnvvP028wO-241" edge="1">
          <mxGeometry relative="1" as="geometry">
            <Array as="points">
              <mxPoint x="3767.5" y="142" />
              <mxPoint x="3720" y="218" />
            </Array>
          </mxGeometry>
        </mxCell>
        <mxCell id="P9SKCXnRvYGnvvP028wO-232" style="edgeStyle=orthogonalEdgeStyle;rounded=0;orthogonalLoop=1;jettySize=auto;html=1;orthogonal=1;curved=1;noEdgeStyle=1;" parent="1" source="P9SKCXnRvYGnvvP028wO-233" target="P9SKCXnRvYGnvvP028wO-243" edge="1">
          <mxGeometry relative="1" as="geometry">
            <Array as="points">
              <mxPoint x="3822.5" y="142" />
              <mxPoint x="3945" y="180" />
              <mxPoint x="3945" y="340" />
              <mxPoint x="3945" y="340" />
              <mxPoint x="3945" y="500" />
              <mxPoint x="3945" y="500" />
              <mxPoint x="3945" y="660" />
              <mxPoint x="3945" y="660" />
              <mxPoint x="3945" y="820" />
              <mxPoint x="3945" y="820" />
              <mxPoint x="3945" y="980" />
              <mxPoint x="3945" y="980" />
              <mxPoint x="3945" y="1140" />
              <mxPoint x="3945" y="1178" />
            </Array>
          </mxGeometry>
        </mxCell>
        <mxCell id="P9SKCXnRvYGnvvP028wO-233" value="checksums valid" style="whiteSpace=wrap;html=1;fillColor=#6a00ff;fontColor=#ffffff;strokeColor=#3700CC;" parent="1" vertex="1">
          <mxGeometry x="3735" y="70" width="120" height="60" as="geometry" />
        </mxCell>
        <mxCell id="P9SKCXnRvYGnvvP028wO-234" value="" style="edgeStyle=orthogonalEdgeStyle;rounded=0;orthogonalLoop=1;jettySize=auto;html=1;orthogonal=1;curved=1;noEdgeStyle=1;" parent="1" source="P9SKCXnRvYGnvvP028wO-235" target="P9SKCXnRvYGnvvP028wO-237" edge="1">
          <mxGeometry relative="1" as="geometry">
            <Array as="points">
              <mxPoint x="3555" y="462" />
              <mxPoint x="3602.5" y="538" />
            </Array>
          </mxGeometry>
        </mxCell>
        <mxCell id="P9SKCXnRvYGnvvP028wO-235" value="count" style="whiteSpace=wrap;html=1;" parent="1" vertex="1">
          <mxGeometry x="3495" y="390" width="120" height="60" as="geometry" />
        </mxCell>
        <mxCell id="P9SKCXnRvYGnvvP028wO-236" value="" style="edgeStyle=orthogonalEdgeStyle;rounded=0;orthogonalLoop=1;jettySize=auto;html=1;orthogonal=1;curved=1;noEdgeStyle=1;" parent="1" source="P9SKCXnRvYGnvvP028wO-237" target="P9SKCXnRvYGnvvP028wO-238" edge="1">
          <mxGeometry relative="1" as="geometry">
            <Array as="points">
              <mxPoint x="3630" y="622" />
              <mxPoint x="3630" y="698" />
            </Array>
          </mxGeometry>
        </mxCell>
        <mxCell id="P9SKCXnRvYGnvvP028wO-237" value="sample" style="whiteSpace=wrap;html=1;" parent="1" vertex="1">
          <mxGeometry x="3570" y="550" width="120" height="60" as="geometry" />
        </mxCell>
        <mxCell id="P9SKCXnRvYGnvvP028wO-238" value="drop" style="whiteSpace=wrap;html=1;" parent="1" vertex="1">
          <mxGeometry x="3570" y="710" width="120" height="60" as="geometry" />
        </mxCell>
        <mxCell id="P9SKCXnRvYGnvvP028wO-239" value="" style="edgeStyle=orthogonalEdgeStyle;rounded=0;orthogonalLoop=1;jettySize=auto;html=1;orthogonal=1;curved=1;noEdgeStyle=1;" parent="1" source="P9SKCXnRvYGnvvP028wO-241" target="P9SKCXnRvYGnvvP028wO-245" edge="1">
          <mxGeometry relative="1" as="geometry">
            <Array as="points">
              <mxPoint x="3692.5" y="302" />
              <mxPoint x="3705" y="378" />
            </Array>
          </mxGeometry>
        </mxCell>
        <mxCell id="P9SKCXnRvYGnvvP028wO-240" style="edgeStyle=orthogonalEdgeStyle;rounded=0;orthogonalLoop=1;jettySize=auto;html=1;entryX=0.5;entryY=0;entryDx=0;entryDy=0;orthogonal=1;curved=1;noEdgeStyle=1;" parent="1" source="P9SKCXnRvYGnvvP028wO-241" target="P9SKCXnRvYGnvvP028wO-247" edge="1">
          <mxGeometry relative="1" as="geometry">
            <Array as="points">
              <mxPoint x="3747.5" y="302" />
              <mxPoint x="3855" y="378" />
            </Array>
          </mxGeometry>
        </mxCell>
        <mxCell id="P9SKCXnRvYGnvvP028wO-241" value="vpc lookup" style="whiteSpace=wrap;html=1;fillColor=#6a00ff;fontColor=#ffffff;strokeColor=#3700CC;" parent="1" vertex="1">
          <mxGeometry x="3660" y="230" width="120" height="60" as="geometry" />
        </mxCell>
        <mxCell id="P9SKCXnRvYGnvvP028wO-242" style="edgeStyle=orthogonalEdgeStyle;rounded=0;orthogonalLoop=1;jettySize=auto;html=1;entryX=0.5;entryY=0;entryDx=0;entryDy=0;orthogonal=1;curved=1;noEdgeStyle=1;" parent="1" source="P9SKCXnRvYGnvvP028wO-243" target="P9SKCXnRvYGnvvP028wO-270" edge="1">
          <mxGeometry relative="1" as="geometry">
            <Array as="points">
              <mxPoint x="3945" y="1262" />
              <mxPoint x="3987.5" y="1338" />
            </Array>
          </mxGeometry>
        </mxCell>
        <mxCell id="P9SKCXnRvYGnvvP028wO-243" value="control" style="whiteSpace=wrap;html=1;" parent="1" vertex="1">
          <mxGeometry x="3885" y="1190" width="120" height="60" as="geometry" />
        </mxCell>
        <mxCell id="P9SKCXnRvYGnvvP028wO-244" style="edgeStyle=orthogonalEdgeStyle;rounded=0;orthogonalLoop=1;jettySize=auto;html=1;entryX=0.5;entryY=0;entryDx=0;entryDy=0;orthogonal=1;curved=1;noEdgeStyle=1;" parent="1" source="P9SKCXnRvYGnvvP028wO-245" target="P9SKCXnRvYGnvvP028wO-237" edge="1">
          <mxGeometry relative="1" as="geometry">
            <Array as="points">
              <mxPoint x="3705" y="462" />
              <mxPoint x="3657.5" y="538" />
            </Array>
          </mxGeometry>
        </mxCell>
        <mxCell id="P9SKCXnRvYGnvvP028wO-245" value="vpc miss" style="whiteSpace=wrap;html=1;" parent="1" vertex="1">
          <mxGeometry x="3645" y="390" width="120" height="60" as="geometry" />
        </mxCell>
        <mxCell id="P9SKCXnRvYGnvvP028wO-246" value="" style="edgeStyle=orthogonalEdgeStyle;rounded=0;orthogonalLoop=1;jettySize=auto;html=1;orthogonal=1;curved=1;noEdgeStyle=1;" parent="1" source="P9SKCXnRvYGnvvP028wO-247" target="P9SKCXnRvYGnvvP028wO-249" edge="1">
          <mxGeometry relative="1" as="geometry">
            <Array as="points">
              <mxPoint x="3855" y="462" />
              <mxPoint x="3780" y="538" />
            </Array>
          </mxGeometry>
        </mxCell>
        <mxCell id="P9SKCXnRvYGnvvP028wO-247" value="vpc match" style="whiteSpace=wrap;html=1;fillColor=#6a00ff;fontColor=#ffffff;strokeColor=#3700CC;" parent="1" vertex="1">
          <mxGeometry x="3795" y="390" width="120" height="60" as="geometry" />
        </mxCell>
        <mxCell id="P9SKCXnRvYGnvvP028wO-248" value="" style="edgeStyle=orthogonalEdgeStyle;rounded=0;orthogonalLoop=1;jettySize=auto;html=1;orthogonal=1;curved=1;noEdgeStyle=1;" parent="1" source="P9SKCXnRvYGnvvP028wO-249" target="P9SKCXnRvYGnvvP028wO-251" edge="1">
          <mxGeometry relative="1" as="geometry">
            <Array as="points">
              <mxPoint x="3780" y="622" />
              <mxPoint x="3780" y="698" />
            </Array>
          </mxGeometry>
        </mxCell>
        <mxCell id="P9SKCXnRvYGnvvP028wO-249" value="mark frame" style="whiteSpace=wrap;html=1;fillColor=#6a00ff;fontColor=#ffffff;strokeColor=#3700CC;" parent="1" vertex="1">
          <mxGeometry x="3720" y="550" width="120" height="60" as="geometry" />
        </mxCell>
        <mxCell id="P9SKCXnRvYGnvvP028wO-250" value="" style="edgeStyle=orthogonalEdgeStyle;rounded=0;orthogonalLoop=1;jettySize=auto;html=1;orthogonal=1;curved=1;noEdgeStyle=1;" parent="1" source="P9SKCXnRvYGnvvP028wO-251" target="P9SKCXnRvYGnvvP028wO-253" edge="1">
          <mxGeometry relative="1" as="geometry">
            <Array as="points">
              <mxPoint x="3780" y="782" />
              <mxPoint x="3705" y="858" />
            </Array>
          </mxGeometry>
        </mxCell>
        <mxCell id="P9SKCXnRvYGnvvP028wO-251" value="decapsulate" style="whiteSpace=wrap;html=1;fillColor=#6a00ff;fontColor=#ffffff;strokeColor=#3700CC;" parent="1" vertex="1">
          <mxGeometry x="3720" y="710" width="120" height="60" as="geometry" />
        </mxCell>
        <mxCell id="P9SKCXnRvYGnvvP028wO-252" value="" style="edgeStyle=orthogonalEdgeStyle;rounded=0;orthogonalLoop=1;jettySize=auto;html=1;orthogonal=1;curved=1;noEdgeStyle=1;" parent="1" source="P9SKCXnRvYGnvvP028wO-253" target="P9SKCXnRvYGnvvP028wO-257" edge="1">
          <mxGeometry relative="1" as="geometry">
            <Array as="points">
              <mxPoint x="3705" y="942" />
              <mxPoint x="3660" y="1018" />
            </Array>
          </mxGeometry>
        </mxCell>
        <mxCell id="P9SKCXnRvYGnvvP028wO-253" value="count" style="whiteSpace=wrap;html=1;fillColor=#6a00ff;fontColor=#ffffff;strokeColor=#3700CC;" parent="1" vertex="1">
          <mxGeometry x="3645" y="870" width="120" height="60" as="geometry" />
        </mxCell>
        <mxCell id="P9SKCXnRvYGnvvP028wO-254" value="" style="edgeStyle=orthogonalEdgeStyle;rounded=0;orthogonalLoop=1;jettySize=auto;html=1;orthogonal=1;curved=1;noEdgeStyle=1;" parent="1" source="P9SKCXnRvYGnvvP028wO-257" target="P9SKCXnRvYGnvvP028wO-262" edge="1">
          <mxGeometry relative="1" as="geometry">
            <Array as="points">
              <mxPoint x="3623.333333333333" y="1102" />
              <mxPoint x="3495" y="1178" />
            </Array>
          </mxGeometry>
        </mxCell>
        <mxCell id="P9SKCXnRvYGnvvP028wO-255" style="edgeStyle=orthogonalEdgeStyle;rounded=0;orthogonalLoop=1;jettySize=auto;html=1;entryX=0.5;entryY=0;entryDx=0;entryDy=0;orthogonal=1;curved=1;noEdgeStyle=1;" parent="1" source="P9SKCXnRvYGnvvP028wO-257" target="P9SKCXnRvYGnvvP028wO-266" edge="1">
          <mxGeometry relative="1" as="geometry">
            <Array as="points">
              <mxPoint x="3660" y="1104" />
              <mxPoint x="3645" y="1178" />
            </Array>
          </mxGeometry>
        </mxCell>
        <mxCell id="P9SKCXnRvYGnvvP028wO-256" style="edgeStyle=orthogonalEdgeStyle;rounded=0;orthogonalLoop=1;jettySize=auto;html=1;orthogonal=1;curved=1;noEdgeStyle=1;" parent="1" source="P9SKCXnRvYGnvvP028wO-257" target="P9SKCXnRvYGnvvP028wO-268" edge="1">
          <mxGeometry relative="1" as="geometry">
            <Array as="points">
              <mxPoint x="3696.666666666667" y="1102" />
              <mxPoint x="3795" y="1178" />
            </Array>
          </mxGeometry>
        </mxCell>
        <mxCell id="P9SKCXnRvYGnvvP028wO-257" value="meter" style="whiteSpace=wrap;html=1;fillColor=#6a00ff;fontColor=#ffffff;strokeColor=#3700CC;" parent="1" vertex="1">
          <mxGeometry x="3600" y="1030" width="120" height="60" as="geometry" />
        </mxCell>
        <mxCell id="P9SKCXnRvYGnvvP028wO-258" style="edgeStyle=orthogonalEdgeStyle;rounded=0;orthogonalLoop=1;jettySize=auto;html=1;entryX=0.5;entryY=0;entryDx=0;entryDy=0;orthogonal=1;curved=1;exitX=0.5;exitY=1;exitDx=0;exitDy=0;noEdgeStyle=1;" parent="1" source="P9SKCXnRvYGnvvP028wO-262" target="P9SKCXnRvYGnvvP028wO-282" edge="1">
          <mxGeometry relative="1" as="geometry">
            <Array as="points">
              <mxPoint x="3536.25" y="1262" />
              <mxPoint x="3782.5" y="1338" />
            </Array>
          </mxGeometry>
        </mxCell>
        <mxCell id="P9SKCXnRvYGnvvP028wO-259" style="edgeStyle=orthogonalEdgeStyle;rounded=0;orthogonalLoop=1;jettySize=auto;html=1;entryX=0.5;entryY=0;entryDx=0;entryDy=0;orthogonal=1;curved=1;noEdgeStyle=1;" parent="1" source="P9SKCXnRvYGnvvP028wO-262" target="P9SKCXnRvYGnvvP028wO-285" edge="1">
          <mxGeometry relative="1" as="geometry">
            <Array as="points">
              <mxPoint x="3481.25" y="1264" />
              <mxPoint x="3482.5" y="1338" />
            </Array>
          </mxGeometry>
        </mxCell>
        <mxCell id="P9SKCXnRvYGnvvP028wO-260" style="edgeStyle=orthogonalEdgeStyle;rounded=0;orthogonalLoop=1;jettySize=auto;html=1;orthogonal=1;curved=1;noEdgeStyle=1;" parent="1" source="P9SKCXnRvYGnvvP028wO-262" target="P9SKCXnRvYGnvvP028wO-288" edge="1">
          <mxGeometry relative="1" as="geometry">
            <Array as="points">
              <mxPoint x="3508.75" y="1264" />
              <mxPoint x="3632.5" y="1338" />
            </Array>
          </mxGeometry>
        </mxCell>
        <mxCell id="P9SKCXnRvYGnvvP028wO-261" style="edgeStyle=orthogonalEdgeStyle;rounded=0;orthogonalLoop=1;jettySize=auto;html=1;orthogonal=1;curved=1;noEdgeStyle=1;" parent="1" source="P9SKCXnRvYGnvvP028wO-262" target="P9SKCXnRvYGnvvP028wO-290" edge="1">
          <mxGeometry relative="1" as="geometry">
            <Array as="points">
              <mxPoint x="3453.75" y="1262" />
              <mxPoint x="3420" y="1300" />
              <mxPoint x="3420" y="1460" />
              <mxPoint x="3525" y="1498" />
            </Array>
          </mxGeometry>
        </mxCell>
        <mxCell id="P9SKCXnRvYGnvvP028wO-262" value="ipv4" style="whiteSpace=wrap;html=1;fillColor=#6a00ff;fontColor=#ffffff;strokeColor=#3700CC;" parent="1" vertex="1">
          <mxGeometry x="3435" y="1190" width="120" height="60" as="geometry" />
        </mxCell>
        <mxCell id="P9SKCXnRvYGnvvP028wO-263" style="edgeStyle=orthogonalEdgeStyle;rounded=0;orthogonalLoop=1;jettySize=auto;html=1;orthogonal=1;curved=1;noEdgeStyle=1;" parent="1" source="P9SKCXnRvYGnvvP028wO-266" target="P9SKCXnRvYGnvvP028wO-282" edge="1">
          <mxGeometry relative="1" as="geometry">
            <Array as="points">
              <mxPoint x="3681.666666666667" y="1262" />
              <mxPoint x="3837.5" y="1338" />
            </Array>
          </mxGeometry>
        </mxCell>
        <mxCell id="P9SKCXnRvYGnvvP028wO-264" style="edgeStyle=orthogonalEdgeStyle;rounded=0;orthogonalLoop=1;jettySize=auto;html=1;entryX=0.5;entryY=0;entryDx=0;entryDy=0;orthogonal=1;curved=1;noEdgeStyle=1;" parent="1" source="P9SKCXnRvYGnvvP028wO-266" target="P9SKCXnRvYGnvvP028wO-285" edge="1">
          <mxGeometry relative="1" as="geometry">
            <Array as="points">
              <mxPoint x="3608.333333333333" y="1262" />
              <mxPoint x="3537.5" y="1338" />
            </Array>
          </mxGeometry>
        </mxCell>
        <mxCell id="P9SKCXnRvYGnvvP028wO-265" style="edgeStyle=orthogonalEdgeStyle;rounded=0;orthogonalLoop=1;jettySize=auto;html=1;orthogonal=1;curved=1;noEdgeStyle=1;" parent="1" source="P9SKCXnRvYGnvvP028wO-266" target="P9SKCXnRvYGnvvP028wO-288" edge="1">
          <mxGeometry relative="1" as="geometry">
            <Array as="points">
              <mxPoint x="3645" y="1264" />
              <mxPoint x="3687.5" y="1338" />
            </Array>
          </mxGeometry>
        </mxCell>
        <mxCell id="P9SKCXnRvYGnvvP028wO-266" value="ipv6" style="whiteSpace=wrap;html=1;" parent="1" vertex="1">
          <mxGeometry x="3585" y="1190" width="120" height="60" as="geometry" />
        </mxCell>
        <mxCell id="P9SKCXnRvYGnvvP028wO-267" value="" style="edgeStyle=orthogonalEdgeStyle;rounded=0;orthogonalLoop=1;jettySize=auto;html=1;orthogonal=1;curved=1;noEdgeStyle=1;" parent="1" source="P9SKCXnRvYGnvvP028wO-268" target="P9SKCXnRvYGnvvP028wO-270" edge="1">
          <mxGeometry relative="1" as="geometry">
            <Array as="points">
              <mxPoint x="3795" y="1262" />
              <mxPoint x="3932.5" y="1338" />
            </Array>
          </mxGeometry>
        </mxCell>
        <mxCell id="P9SKCXnRvYGnvvP028wO-268" value="other" style="whiteSpace=wrap;html=1;" parent="1" vertex="1">
          <mxGeometry x="3735" y="1190" width="120" height="60" as="geometry" />
        </mxCell>
        <mxCell id="P9SKCXnRvYGnvvP028wO-269" value="" style="edgeStyle=orthogonalEdgeStyle;rounded=0;orthogonalLoop=1;jettySize=auto;html=1;orthogonal=1;entryX=0.5;entryY=0;entryDx=0;entryDy=0;curved=1;noEdgeStyle=1;" parent="1" source="P9SKCXnRvYGnvvP028wO-270" target="P9SKCXnRvYGnvvP028wO-279" edge="1">
          <mxGeometry relative="1" as="geometry">
            <Array as="points">
              <mxPoint x="3960" y="1422" />
              <mxPoint x="3958.59375" y="1498" />
            </Array>
          </mxGeometry>
        </mxCell>
        <mxCell id="P9SKCXnRvYGnvvP028wO-270" value="meter" style="whiteSpace=wrap;html=1;" parent="1" vertex="1">
          <mxGeometry x="3900" y="1350" width="120" height="60" as="geometry" />
        </mxCell>
        <mxCell id="P9SKCXnRvYGnvvP028wO-271" value="trap / queue to tap device" style="whiteSpace=wrap;html=1;" parent="1" vertex="1">
          <mxGeometry x="3898.59375" y="1670" width="120" height="60" as="geometry" />
        </mxCell>
        <mxCell id="P9SKCXnRvYGnvvP028wO-272" style="edgeStyle=orthogonalEdgeStyle;rounded=0;orthogonalLoop=1;jettySize=auto;html=1;orthogonal=1;curved=1;noEdgeStyle=1;" parent="1" source="P9SKCXnRvYGnvvP028wO-273" target="P9SKCXnRvYGnvvP028wO-275" edge="1">
          <mxGeometry relative="1" as="geometry">
            <Array as="points">
              <mxPoint x="3705" y="1582" />
              <mxPoint x="3704.0806749131943" y="1654" />
            </Array>
          </mxGeometry>
        </mxCell>
        <mxCell id="P9SKCXnRvYGnvvP028wO-273" value="NAT (pre routing)&lt;div&gt;(44, 66, 64, 46)&lt;/div&gt;" style="whiteSpace=wrap;html=1;fillColor=#6a00ff;fontColor=#ffffff;strokeColor=#3700CC;" parent="1" vertex="1">
          <mxGeometry x="3645" y="1510" width="120" height="60" as="geometry" />
        </mxCell>
        <mxCell id="P9SKCXnRvYGnvvP028wO-274" style="edgeStyle=orthogonalEdgeStyle;rounded=0;orthogonalLoop=1;jettySize=auto;html=1;orthogonal=1;curved=1;noEdgeStyle=1;" parent="1" source="P9SKCXnRvYGnvvP028wO-275" target="P9SKCXnRvYGnvvP028wO-277" edge="1">
          <mxGeometry relative="1" as="geometry">
            <Array as="points">
              <mxPoint x="3704.0806749131943" y="1742" />
              <mxPoint x="3700.8851453993057" y="1818" />
            </Array>
          </mxGeometry>
        </mxCell>
        <mxCell id="P9SKCXnRvYGnvvP028wO-275" value="Routing" style="whiteSpace=wrap;html=1;fillColor=#6a00ff;fontColor=#ffffff;strokeColor=#3700CC;" parent="1" vertex="1">
          <mxGeometry x="3644.0806749131943" y="1670" width="120" height="60" as="geometry" />
        </mxCell>
        <mxCell id="P9SKCXnRvYGnvvP028wO-276" style="edgeStyle=orthogonalEdgeStyle;rounded=0;orthogonalLoop=1;jettySize=auto;html=1;orthogonal=1;curved=1;noEdgeStyle=1;" parent="1" source="P9SKCXnRvYGnvvP028wO-277" target="P9SKCXnRvYGnvvP028wO-292" edge="1">
          <mxGeometry relative="1" as="geometry">
            <Array as="points">
              <mxPoint x="3700.8851453993057" y="1902" />
              <mxPoint x="3699.2873806423613" y="1978" />
            </Array>
          </mxGeometry>
        </mxCell>
        <mxCell id="P9SKCXnRvYGnvvP028wO-277" value="NAT (post routing)&lt;div&gt;(44, 66, 64, 46)&lt;/div&gt;" style="whiteSpace=wrap;html=1;fillColor=#6a00ff;fontColor=#ffffff;strokeColor=#3700CC;" parent="1" vertex="1">
          <mxGeometry x="3640.8851453993057" y="1830" width="120" height="60" as="geometry" />
        </mxCell>
        <mxCell id="P9SKCXnRvYGnvvP028wO-278" style="edgeStyle=orthogonalEdgeStyle;rounded=0;orthogonalLoop=1;jettySize=auto;html=1;orthogonal=1;curved=1;noEdgeStyle=1;" parent="1" source="P9SKCXnRvYGnvvP028wO-279" target="P9SKCXnRvYGnvvP028wO-271" edge="1">
          <mxGeometry relative="1" as="geometry">
            <Array as="points">
              <mxPoint x="3958.59375" y="1582" />
              <mxPoint x="3958.59375" y="1658" />
            </Array>
          </mxGeometry>
        </mxCell>
        <mxCell id="P9SKCXnRvYGnvvP028wO-279" value="Push QinQ" style="whiteSpace=wrap;html=1;" parent="1" vertex="1">
          <mxGeometry x="3898.59375" y="1510" width="120" height="60" as="geometry" />
        </mxCell>
        <mxCell id="P9SKCXnRvYGnvvP028wO-280" style="edgeStyle=orthogonalEdgeStyle;rounded=0;orthogonalLoop=1;jettySize=auto;html=1;entryX=0.5;entryY=0;entryDx=0;entryDy=0;orthogonal=1;curved=1;noEdgeStyle=1;" parent="1" source="P9SKCXnRvYGnvvP028wO-282" target="P9SKCXnRvYGnvvP028wO-273" edge="1">
          <mxGeometry relative="1" as="geometry">
            <Array as="points">
              <mxPoint x="3782.5" y="1422" />
              <mxPoint x="3741.666666666667" y="1498" />
            </Array>
          </mxGeometry>
        </mxCell>
        <mxCell id="P9SKCXnRvYGnvvP028wO-281" style="edgeStyle=orthogonalEdgeStyle;rounded=0;orthogonalLoop=1;jettySize=auto;html=1;orthogonal=1;entryX=0.5;entryY=0;entryDx=0;entryDy=0;curved=1;noEdgeStyle=1;" parent="1" source="P9SKCXnRvYGnvvP028wO-282" target="P9SKCXnRvYGnvvP028wO-275" edge="1">
          <mxGeometry relative="1" as="geometry">
            <mxPoint x="3807" y="1670" as="targetPoint" />
            <Array as="points">
              <mxPoint x="3837.5" y="1422" />
              <mxPoint x="3825" y="1460" />
              <mxPoint x="3825" y="1620" />
              <mxPoint x="3748.0806749131943" y="1658" />
            </Array>
          </mxGeometry>
        </mxCell>
        <mxCell id="P9SKCXnRvYGnvvP028wO-282" value="TCP" style="whiteSpace=wrap;html=1;fillColor=#6a00ff;fontColor=#ffffff;strokeColor=#3700CC;" parent="1" vertex="1">
          <mxGeometry x="3750" y="1350" width="120" height="60" as="geometry" />
        </mxCell>
        <mxCell id="P9SKCXnRvYGnvvP028wO-283" style="edgeStyle=orthogonalEdgeStyle;rounded=0;orthogonalLoop=1;jettySize=auto;html=1;orthogonal=1;curved=1;noEdgeStyle=1;" parent="1" source="P9SKCXnRvYGnvvP028wO-285" target="P9SKCXnRvYGnvvP028wO-273" edge="1">
          <mxGeometry relative="1" as="geometry">
            <Array as="points">
              <mxPoint x="3537.5" y="1422" />
              <mxPoint x="3668.3333333333335" y="1498" />
            </Array>
          </mxGeometry>
        </mxCell>
        <mxCell id="P9SKCXnRvYGnvvP028wO-284" style="edgeStyle=orthogonalEdgeStyle;rounded=0;orthogonalLoop=1;jettySize=auto;html=1;orthogonal=1;entryX=0.5;entryY=0;entryDx=0;entryDy=0;curved=1;noEdgeStyle=1;" parent="1" source="P9SKCXnRvYGnvvP028wO-285" target="P9SKCXnRvYGnvvP028wO-275" edge="1">
          <mxGeometry relative="1" as="geometry">
            <mxPoint x="3840" y="1670" as="targetPoint" />
            <Array as="points">
              <mxPoint x="3482.5" y="1422" />
              <mxPoint x="3615" y="1460" />
              <mxPoint x="3615" y="1620" />
              <mxPoint x="3682.0806749131943" y="1656" />
            </Array>
          </mxGeometry>
        </mxCell>
        <mxCell id="P9SKCXnRvYGnvvP028wO-285" value="UDP" style="whiteSpace=wrap;html=1;" parent="1" vertex="1">
          <mxGeometry x="3450" y="1350" width="120" height="60" as="geometry" />
        </mxCell>
        <mxCell id="P9SKCXnRvYGnvvP028wO-286" style="edgeStyle=orthogonalEdgeStyle;rounded=0;orthogonalLoop=1;jettySize=auto;html=1;entryX=0.5;entryY=0;entryDx=0;entryDy=0;orthogonal=1;curved=1;noEdgeStyle=1;" parent="1" source="P9SKCXnRvYGnvvP028wO-288" target="P9SKCXnRvYGnvvP028wO-273" edge="1">
          <mxGeometry relative="1" as="geometry">
            <Array as="points">
              <mxPoint x="3632.5" y="1422" />
              <mxPoint x="3705" y="1496" />
            </Array>
          </mxGeometry>
        </mxCell>
        <mxCell id="P9SKCXnRvYGnvvP028wO-287" style="edgeStyle=orthogonalEdgeStyle;rounded=0;orthogonalLoop=1;jettySize=auto;html=1;entryX=0.75;entryY=0;entryDx=0;entryDy=0;orthogonal=1;curved=1;noEdgeStyle=1;" parent="1" source="P9SKCXnRvYGnvvP028wO-288" target="P9SKCXnRvYGnvvP028wO-275" edge="1">
          <mxGeometry relative="1" as="geometry">
            <Array as="points">
              <mxPoint x="3687.5" y="1422" />
              <mxPoint x="3795" y="1460" />
              <mxPoint x="3795" y="1620" />
              <mxPoint x="3726.0806749131943" y="1656" />
            </Array>
          </mxGeometry>
        </mxCell>
        <mxCell id="P9SKCXnRvYGnvvP028wO-288" value="SCTP" style="whiteSpace=wrap;html=1;" parent="1" vertex="1">
          <mxGeometry x="3600" y="1350" width="120" height="60" as="geometry" />
        </mxCell>
        <mxCell id="P9SKCXnRvYGnvvP028wO-289" style="edgeStyle=orthogonalEdgeStyle;rounded=0;orthogonalLoop=1;jettySize=auto;html=1;entryX=0.25;entryY=0;entryDx=0;entryDy=0;orthogonal=1;curved=1;noEdgeStyle=1;" parent="1" source="P9SKCXnRvYGnvvP028wO-290" target="P9SKCXnRvYGnvvP028wO-275" edge="1">
          <mxGeometry relative="1" as="geometry">
            <Array as="points">
              <mxPoint x="3525" y="1582" />
              <mxPoint x="3660.0806749131943" y="1658" />
            </Array>
          </mxGeometry>
        </mxCell>
        <mxCell id="P9SKCXnRvYGnvvP028wO-290" value="other" style="whiteSpace=wrap;html=1;" parent="1" vertex="1">
          <mxGeometry x="3465" y="1510" width="120" height="60" as="geometry" />
        </mxCell>
        <mxCell id="P9SKCXnRvYGnvvP028wO-291" value="" style="edgeStyle=orthogonalEdgeStyle;rounded=0;orthogonalLoop=1;jettySize=auto;html=1;orthogonal=1;curved=1;noEdgeStyle=1;" parent="1" source="P9SKCXnRvYGnvvP028wO-292" target="P9SKCXnRvYGnvvP028wO-293" edge="1">
          <mxGeometry relative="1" as="geometry">
            <Array as="points">
              <mxPoint x="3699.2873806423613" y="2062" />
              <mxPoint x="3699.2873806423613" y="2138" />
            </Array>
          </mxGeometry>
        </mxCell>
        <mxCell id="P9SKCXnRvYGnvvP028wO-292" value="Encap / egress marking" style="whiteSpace=wrap;html=1;fillColor=#6a00ff;fontColor=#ffffff;strokeColor=#3700CC;" parent="1" vertex="1">
          <mxGeometry x="3639.2873806423613" y="1990" width="120" height="60" as="geometry" />
        </mxCell>
        <mxCell id="P9SKCXnRvYGnvvP028wO-293" value="queue" style="whiteSpace=wrap;html=1;fillColor=#6a00ff;fontColor=#ffffff;strokeColor=#3700CC;" parent="1" vertex="1">
          <mxGeometry x="3639.2873806423613" y="2150" width="120" height="60" as="geometry" />
        </mxCell>
        <mxCell id="tDXrSetsL-f4m--BmA8V-1" style="edgeStyle=orthogonalEdgeStyle;rounded=0;orthogonalLoop=1;jettySize=auto;html=1;entryX=0;entryY=0.5;entryDx=0;entryDy=0;" parent="1" source="P9SKCXnRvYGnvvP028wO-295" target="P9SKCXnRvYGnvvP028wO-296" edge="1">
          <mxGeometry relative="1" as="geometry" />
        </mxCell>
        <mxCell id="P9SKCXnRvYGnvvP028wO-295" value="checksums valid" style="whiteSpace=wrap;html=1;fillColor=#6a00ff;fontColor=#ffffff;strokeColor=#3700CC;" parent="1" vertex="1">
          <mxGeometry x="4424.997380642361" y="-25" width="120" height="60" as="geometry" />
        </mxCell>
        <mxCell id="tDXrSetsL-f4m--BmA8V-2" style="edgeStyle=orthogonalEdgeStyle;rounded=0;orthogonalLoop=1;jettySize=auto;html=1;" parent="1" source="P9SKCXnRvYGnvvP028wO-296" target="P9SKCXnRvYGnvvP028wO-297" edge="1">
          <mxGeometry relative="1" as="geometry" />
        </mxCell>
        <mxCell id="P9SKCXnRvYGnvvP028wO-296" value="vpc lookup" style="whiteSpace=wrap;html=1;fillColor=#6a00ff;fontColor=#ffffff;strokeColor=#3700CC;" parent="1" vertex="1">
          <mxGeometry x="4573" y="-25" width="120" height="60" as="geometry" />
        </mxCell>
        <mxCell id="tDXrSetsL-f4m--BmA8V-3" style="edgeStyle=orthogonalEdgeStyle;rounded=0;orthogonalLoop=1;jettySize=auto;html=1;" parent="1" source="P9SKCXnRvYGnvvP028wO-297" target="P9SKCXnRvYGnvvP028wO-298" edge="1">
          <mxGeometry relative="1" as="geometry" />
        </mxCell>
        <mxCell id="P9SKCXnRvYGnvvP028wO-297" value="vpc match" style="whiteSpace=wrap;html=1;fillColor=#6a00ff;fontColor=#ffffff;strokeColor=#3700CC;" parent="1" vertex="1">
          <mxGeometry x="4722" y="-25" width="120" height="60" as="geometry" />
        </mxCell>
        <mxCell id="tDXrSetsL-f4m--BmA8V-4" style="edgeStyle=orthogonalEdgeStyle;rounded=0;orthogonalLoop=1;jettySize=auto;html=1;" parent="1" source="P9SKCXnRvYGnvvP028wO-298" target="P9SKCXnRvYGnvvP028wO-299" edge="1">
          <mxGeometry relative="1" as="geometry" />
        </mxCell>
        <mxCell id="P9SKCXnRvYGnvvP028wO-298" value="mark frame" style="whiteSpace=wrap;html=1;fillColor=#6a00ff;fontColor=#ffffff;strokeColor=#3700CC;" parent="1" vertex="1">
          <mxGeometry x="4870" y="-25" width="120" height="60" as="geometry" />
        </mxCell>
        <mxCell id="tDXrSetsL-f4m--BmA8V-5" style="edgeStyle=orthogonalEdgeStyle;rounded=0;orthogonalLoop=1;jettySize=auto;html=1;" parent="1" source="P9SKCXnRvYGnvvP028wO-299" target="P9SKCXnRvYGnvvP028wO-300" edge="1">
          <mxGeometry relative="1" as="geometry" />
        </mxCell>
        <mxCell id="P9SKCXnRvYGnvvP028wO-299" value="decapsulate" style="whiteSpace=wrap;html=1;fillColor=#6a00ff;fontColor=#ffffff;strokeColor=#3700CC;" parent="1" vertex="1">
          <mxGeometry x="5019" y="-25" width="120" height="60" as="geometry" />
        </mxCell>
        <mxCell id="tDXrSetsL-f4m--BmA8V-6" style="edgeStyle=orthogonalEdgeStyle;rounded=0;orthogonalLoop=1;jettySize=auto;html=1;exitX=1;exitY=0.5;exitDx=0;exitDy=0;" parent="1" source="P9SKCXnRvYGnvvP028wO-300" target="P9SKCXnRvYGnvvP028wO-301" edge="1">
          <mxGeometry relative="1" as="geometry" />
        </mxCell>
        <mxCell id="P9SKCXnRvYGnvvP028wO-300" value="count" style="whiteSpace=wrap;html=1;fillColor=#6a00ff;fontColor=#ffffff;strokeColor=#3700CC;" parent="1" vertex="1">
          <mxGeometry x="5167" y="-25" width="120" height="60" as="geometry" />
        </mxCell>
        <mxCell id="tDXrSetsL-f4m--BmA8V-7" style="edgeStyle=orthogonalEdgeStyle;rounded=0;orthogonalLoop=1;jettySize=auto;html=1;exitX=1;exitY=0.5;exitDx=0;exitDy=0;" parent="1" source="P9SKCXnRvYGnvvP028wO-301" target="P9SKCXnRvYGnvvP028wO-302" edge="1">
          <mxGeometry relative="1" as="geometry" />
        </mxCell>
        <mxCell id="P9SKCXnRvYGnvvP028wO-301" value="meter" style="whiteSpace=wrap;html=1;fillColor=#6a00ff;fontColor=#ffffff;strokeColor=#3700CC;" parent="1" vertex="1">
          <mxGeometry x="5316" y="-25" width="120" height="60" as="geometry" />
        </mxCell>
        <mxCell id="tDXrSetsL-f4m--BmA8V-8" style="edgeStyle=orthogonalEdgeStyle;rounded=0;orthogonalLoop=1;jettySize=auto;html=1;exitX=1;exitY=0.5;exitDx=0;exitDy=0;entryX=0;entryY=0.5;entryDx=0;entryDy=0;" parent="1" source="P9SKCXnRvYGnvvP028wO-302" target="P9SKCXnRvYGnvvP028wO-303" edge="1">
          <mxGeometry relative="1" as="geometry" />
        </mxCell>
        <mxCell id="P9SKCXnRvYGnvvP028wO-302" value="ipv4" style="whiteSpace=wrap;html=1;fillColor=#6a00ff;fontColor=#ffffff;strokeColor=#3700CC;" parent="1" vertex="1">
          <mxGeometry x="5464" y="-25" width="120" height="60" as="geometry" />
        </mxCell>
        <mxCell id="tDXrSetsL-f4m--BmA8V-9" style="edgeStyle=orthogonalEdgeStyle;rounded=0;orthogonalLoop=1;jettySize=auto;html=1;exitX=1;exitY=0.5;exitDx=0;exitDy=0;" parent="1" source="P9SKCXnRvYGnvvP028wO-303" target="P9SKCXnRvYGnvvP028wO-304" edge="1">
          <mxGeometry relative="1" as="geometry" />
        </mxCell>
        <mxCell id="P9SKCXnRvYGnvvP028wO-303" value="TCP" style="whiteSpace=wrap;html=1;fillColor=#6a00ff;fontColor=#ffffff;strokeColor=#3700CC;" parent="1" vertex="1">
          <mxGeometry x="5613" y="-25" width="120" height="60" as="geometry" />
        </mxCell>
        <mxCell id="tDXrSetsL-f4m--BmA8V-10" style="edgeStyle=orthogonalEdgeStyle;rounded=0;orthogonalLoop=1;jettySize=auto;html=1;" parent="1" source="P9SKCXnRvYGnvvP028wO-304" target="P9SKCXnRvYGnvvP028wO-305" edge="1">
          <mxGeometry relative="1" as="geometry" />
        </mxCell>
        <mxCell id="P9SKCXnRvYGnvvP028wO-304" value="NAT (pre routing)&lt;div&gt;(44, 66, 64, 46)&lt;/div&gt;" style="whiteSpace=wrap;html=1;fillColor=#6a00ff;fontColor=#ffffff;strokeColor=#3700CC;" parent="1" vertex="1">
          <mxGeometry x="5761" y="-25" width="120" height="60" as="geometry" />
        </mxCell>
        <mxCell id="tDXrSetsL-f4m--BmA8V-11" style="edgeStyle=orthogonalEdgeStyle;rounded=0;orthogonalLoop=1;jettySize=auto;html=1;" parent="1" source="P9SKCXnRvYGnvvP028wO-305" target="P9SKCXnRvYGnvvP028wO-306" edge="1">
          <mxGeometry relative="1" as="geometry" />
        </mxCell>
        <mxCell id="P9SKCXnRvYGnvvP028wO-305" value="Routing" style="whiteSpace=wrap;html=1;fillColor=#6a00ff;fontColor=#ffffff;strokeColor=#3700CC;" parent="1" vertex="1">
          <mxGeometry x="5910" y="-25" width="120" height="60" as="geometry" />
        </mxCell>
        <mxCell id="tDXrSetsL-f4m--BmA8V-12" style="edgeStyle=orthogonalEdgeStyle;rounded=0;orthogonalLoop=1;jettySize=auto;html=1;" parent="1" source="P9SKCXnRvYGnvvP028wO-306" target="P9SKCXnRvYGnvvP028wO-308" edge="1">
          <mxGeometry relative="1" as="geometry" />
        </mxCell>
        <mxCell id="P9SKCXnRvYGnvvP028wO-306" value="NAT (post routing)&lt;div&gt;(44, 66, 64, 46)&lt;/div&gt;" style="whiteSpace=wrap;html=1;fillColor=#6a00ff;fontColor=#ffffff;strokeColor=#3700CC;" parent="1" vertex="1">
          <mxGeometry x="6058" y="-25" width="120" height="60" as="geometry" />
        </mxCell>
        <mxCell id="tDXrSetsL-f4m--BmA8V-13" style="edgeStyle=orthogonalEdgeStyle;rounded=0;orthogonalLoop=1;jettySize=auto;html=1;" parent="1" source="P9SKCXnRvYGnvvP028wO-308" target="P9SKCXnRvYGnvvP028wO-309" edge="1">
          <mxGeometry relative="1" as="geometry" />
        </mxCell>
        <mxCell id="P9SKCXnRvYGnvvP028wO-308" value="Encap / egress marking" style="whiteSpace=wrap;html=1;fillColor=#6a00ff;fontColor=#ffffff;strokeColor=#3700CC;" parent="1" vertex="1">
          <mxGeometry x="6207" y="-25" width="120" height="60" as="geometry" />
        </mxCell>
        <mxCell id="P9SKCXnRvYGnvvP028wO-309" value="queue" style="whiteSpace=wrap;html=1;fillColor=#6a00ff;fontColor=#ffffff;strokeColor=#3700CC;" parent="1" vertex="1">
          <mxGeometry x="6354.997380642361" y="-25" width="120" height="60" as="geometry" />
        </mxCell>
        <mxCell id="4ophhksHAro4pRQ5yNPl-8" style="edgeStyle=orthogonalEdgeStyle;rounded=0;orthogonalLoop=1;jettySize=auto;html=1;" parent="1" source="4ophhksHAro4pRQ5yNPl-1" target="4ophhksHAro4pRQ5yNPl-2" edge="1">
          <mxGeometry relative="1" as="geometry" />
        </mxCell>
        <mxCell id="4ophhksHAro4pRQ5yNPl-1" value="stage1" style="whiteSpace=wrap;html=1;fillColor=#6a00ff;fontColor=#ffffff;strokeColor=#3700CC;" parent="1" vertex="1">
          <mxGeometry x="4552" y="210" width="120" height="60" as="geometry" />
        </mxCell>
        <mxCell id="4ophhksHAro4pRQ5yNPl-9" style="edgeStyle=orthogonalEdgeStyle;rounded=0;orthogonalLoop=1;jettySize=auto;html=1;" parent="1" source="4ophhksHAro4pRQ5yNPl-2" target="4ophhksHAro4pRQ5yNPl-3" edge="1">
          <mxGeometry relative="1" as="geometry" />
        </mxCell>
        <mxCell id="4ophhksHAro4pRQ5yNPl-2" value="stage2" style="whiteSpace=wrap;html=1;fillColor=#6a00ff;fontColor=#ffffff;strokeColor=#3700CC;" parent="1" vertex="1">
          <mxGeometry x="4715" y="210" width="120" height="60" as="geometry" />
        </mxCell>
        <mxCell id="4ophhksHAro4pRQ5yNPl-10" style="edgeStyle=orthogonalEdgeStyle;rounded=0;orthogonalLoop=1;jettySize=auto;html=1;" parent="1" source="4ophhksHAro4pRQ5yNPl-3" target="4ophhksHAro4pRQ5yNPl-4" edge="1">
          <mxGeometry relative="1" as="geometry" />
        </mxCell>
        <mxCell id="4ophhksHAro4pRQ5yNPl-3" value="stage3" style="whiteSpace=wrap;html=1;fillColor=#6a00ff;fontColor=#ffffff;strokeColor=#3700CC;" parent="1" vertex="1">
          <mxGeometry x="4879" y="210" width="120" height="60" as="geometry" />
        </mxCell>
        <mxCell id="4ophhksHAro4pRQ5yNPl-11" style="edgeStyle=orthogonalEdgeStyle;rounded=0;orthogonalLoop=1;jettySize=auto;html=1;" parent="1" source="4ophhksHAro4pRQ5yNPl-4" target="4ophhksHAro4pRQ5yNPl-6" edge="1">
          <mxGeometry relative="1" as="geometry" />
        </mxCell>
        <mxCell id="4ophhksHAro4pRQ5yNPl-4" value="stage4" style="whiteSpace=wrap;html=1;fillColor=#6a00ff;fontColor=#ffffff;strokeColor=#3700CC;" parent="1" vertex="1">
          <mxGeometry x="5042" y="210" width="120" height="60" as="geometry" />
        </mxCell>
        <mxCell id="4ophhksHAro4pRQ5yNPl-7" style="edgeStyle=orthogonalEdgeStyle;rounded=0;orthogonalLoop=1;jettySize=auto;html=1;entryX=0;entryY=0.5;entryDx=0;entryDy=0;" parent="1" source="4ophhksHAro4pRQ5yNPl-5" target="4ophhksHAro4pRQ5yNPl-1" edge="1">
          <mxGeometry relative="1" as="geometry" />
        </mxCell>
        <mxCell id="4ophhksHAro4pRQ5yNPl-5" value="ingress" style="whiteSpace=wrap;html=1;fillColor=#6a00ff;fontColor=#ffffff;strokeColor=#3700CC;" parent="1" vertex="1">
          <mxGeometry x="4388" y="210" width="120" height="60" as="geometry" />
        </mxCell>
        <mxCell id="4ophhksHAro4pRQ5yNPl-6" value="egress" style="whiteSpace=wrap;html=1;fillColor=#6a00ff;fontColor=#ffffff;strokeColor=#3700CC;" parent="1" vertex="1">
          <mxGeometry x="5206" y="210" width="120" height="60" as="geometry" />
        </mxCell>
      </root>
    </mxGraphModel>
  </diagram>
</mxfile>
